<?xml version="1.0" encoding="utf-8"?>
<!-- Generator: Adobe Illustrator 24.2.1, SVG Export Plug-In . SVG Version: 6.00 Build 0)  -->
<!DOCTYPE svg PUBLIC "-//W3C//DTD SVG 1.1//EN" "http://www.w3.org/Graphics/SVG/1.1/DTD/svg11.dtd" [
	<!ENTITY ns_extend "http://ns.adobe.com/Extensibility/1.0/">
	<!ENTITY ns_ai "http://ns.adobe.com/AdobeIllustrator/10.0/">
	<!ENTITY ns_graphs "http://ns.adobe.com/Graphs/1.0/">
	<!ENTITY ns_vars "http://ns.adobe.com/Variables/1.0/">
	<!ENTITY ns_imrep "http://ns.adobe.com/ImageReplacement/1.0/">
	<!ENTITY ns_sfw "http://ns.adobe.com/SaveForWeb/1.0/">
	<!ENTITY ns_custom "http://ns.adobe.com/GenericCustomNamespace/1.0/">
	<!ENTITY ns_adobe_xpath "http://ns.adobe.com/XPath/1.0/">
]>
<svg version="1.1" id="Layer_1" xmlns:x="&ns_extend;" xmlns:i="&ns_ai;" xmlns:graph="&ns_graphs;"
	 xmlns="http://www.w3.org/2000/svg" xmlns:xlink="http://www.w3.org/1999/xlink" x="0px" y="0px" width="2048px" height="2048px"
	 viewBox="0 0 2048 2048" style="enable-background:new 0 0 2048 2048;" xml:space="preserve">
<style type="text/css">
	.Drop_x0020_Shadow{fill:none;}
	.Round_x0020_Corners_x0020_2_x0020_pt{fill:#FFFFFF;stroke:#231F20;stroke-miterlimit:10;}
	.Live_x0020_Reflect_x0020_X{fill:none;}
	.Bevel_x0020_Soft{fill:url(#SVGID_1_);}
	.Dusk{fill:#FFFFFF;}
	.Foliage_GS{fill:#FFDD00;}
	.Pompadour_GS{fill-rule:evenodd;clip-rule:evenodd;fill:#44ADE2;}
	.st0{fill:#F4F7F9;}
	.st1{fill:#E4E7EA;}
	.st2{fill:#C3D1EB;}
	.st3{fill:#452F7A;}
	.st4{fill:#1C61A2;}
	.st5{fill:#F4FFFF;}
	.st6{fill:#2C5DAA;}
	.st7{fill:#FFFFFF;}
	.st8{fill:#FCD73E;}
	.st9{fill:#96A2C8;}
	.st10{fill:#FFC095;}
	.st11{fill:#FCD242;}
	.st12{fill:#FFB83A;}
	.st13{fill:#FEB77F;}
	.st14{fill:#2B468B;}
	.st15{fill:#F98822;}
	.st16{fill:#F8CA1F;}
	.st17{fill:#FAB80C;}
</style>
<metadata>
	<sfw  xmlns="&ns_sfw;">
		<slices></slices>
		<sliceSourceBounds  bottomLeftOrigin="true" height="1138.6" width="1632.7" x="207.7" y="-1593.3"></sliceSourceBounds>
	</sfw>
</metadata>
<linearGradient id="SVGID_1_" gradientUnits="userSpaceOnUse" x1="0" y1="0" x2="0.7071" y2="0.7071">
	<stop  offset="0" style="stop-color:#DEDFE3"/>
	<stop  offset="0.1783" style="stop-color:#DADBDF"/>
	<stop  offset="0.3611" style="stop-color:#CECFD3"/>
	<stop  offset="0.546" style="stop-color:#B9BCBF"/>
	<stop  offset="0.7324" style="stop-color:#9CA0A2"/>
	<stop  offset="0.9181" style="stop-color:#787D7E"/>
	<stop  offset="1" style="stop-color:#656B6C"/>
</linearGradient>
<g>
	<path class="st0" d="M505.6,604.6c0,0-31.4-131,272.5-83.9s408.8-41.9,513.6-57.6c104.8-15.7,330.2-36.7,340.7,214.9
		s-21,366.9,73.4,508.4s162.5,241.1,120.5,324.9h-1609c0,0-94.3-398.3,304-518.8C919.7,871.9,510.9,772.4,505.6,604.6z"/>
	<g>
		<g>
			<g>
				<g>
					<path class="st1" d="M598,631.3l11.4,24.5l-32.6-44.9c-0.5-1.6-39.4-90.8-87.7-92.1c-12.5-0.3-21.7,1.8-28.2,5.1
						c0,0-0.1,0-0.1,0s-20.9,7.5-21.9,34.9c-1,27.4,48.9,28.7,48.9,28.7c23.6,0.1,74.6,23.5,74.6,23.5s-98.4-14.5-99.5,2.6
						c-1,17.2,22.2,31.2,41.8,22.1c19.6-9.1,52-15.8,70.1-9.4l54.8,77.8c0,0-6.5,0.4-15.9-9c-9.4-9.4-96.3-53.1-106.5-32.5
						c-10.2,20.7,19,52.1,59.2,53.2c40.3,1.1,56.5-3.3,63.3,3.4c6.8,6.6,16.2,16.6,16.2,16.6s-84.5-14.1-89.3,5.1
						c-4.8,19.2,11.8,18.6,22.1,15.1c10.3-3.5,44.4-31,74.9-8.1l33,49.3c0,0-105.2-33.2-112.3-8.5c-7.1,24.8,35.1,43.7,124.3,20.3
						l35.9,42.1c0,0-19.5,7.5-37.1,1.4c-17.6-6.1-51.1,13.1-30.5,23.3c20.7,10.2,71.4-19,71.4-19s2.7,2.6,7.2,6.6
						c-1.7,1-33.6,19.9-27.3,43.6c6.5,24.4,20.1-4.3,21.2-15.7c1-9.4,7.2-21.1,9.4-25c20.4,18.1,65.8,55.5,90.8,54.4l5.9-10.3
						c0,0-73.6-22.1-91.6-51.3c5.2-3,12.9-6.9,19.6-8c11.3-1.9,39.1-17.2,14.4-22.2c-18-3.6-32,13.8-38.3,23.7
						c-2.5-4-4.7-12.4,5.5-25.3c15-18.9,38.2-40,24.8-51.7s-28.9-4-36.7,15.1c-7.8,19.1-5.4,49-5.4,49s-33.2-22.7-28.7-41.9
						c4.6-19.2,80.9-129.9,60.6-153c-20.3-23.1-37.9-30.1-46.3,14c-8.5,44.1-23,133.9-23,133.9s-28.3-25-29.4-45.1
						c-1.1-20.2,75.3-101.9,21.3-160.6c0,0-46.7-2.1-39.2,77.9c4.3,46.4,6,61,6.7,65c-4.5-4.7-47.7-50.5-39.5-73.2
						c8.7-23.9,19.1-50.2,17.6-82.5c-1.5-32.3-27.1-68.4-40-68.8C585.4,505.2,565.8,574,598,631.3z"/>
				</g>
			</g>
		</g>
		<path class="st1" d="M1254.3,832.2c3.7,2.2,8.5,1.8,11.7-1.3l59-55.8c0.1-0.1,0.1-0.1,0.1-0.1c13.1,50.9,67.3,34.2,74.2,33.9
			c6.9-0.4,30.7-5.1,30.5-8.5c-0.2-3.4-11.2-16.6-11.6-23.5c-0.4-6.9,28.8,22.6,38.7,15.1c9.9-7.4,6.7-3.8,13.4-7.6
			c6.7-3.8,10.1-4,20.4-4.5c10.3-0.6,16.2-18.1,19.5-21.8c3.2-3.6-21-5.8-21.2-9.2c-0.2-3.4,10.3-0.6,24.1-1.3
			c13.7-0.7,6.3-10.7,12.8-17.9c6.5-7.2,2.5-17.4,5.4-27.8c2.9-10.5-10.5-2.9-27.7-1.9c-17.2,0.9-42.3-18.4-31.8-15.5
			s48.1-2.6,48.1-2.6s7.1,3.1,16.4-14.7c9.4-17.7-0.1-65.5-0.1-65.5c-2.9,10.5-41.1,5.7-51.2,9.7c-10.1,4-7.4-9.9,2.5-17.4
			c9.9-7.4,17.2-0.9,30-18.8c12.8-17.9-12.5-40.6-12.5-40.6s-6.7,3.8-10,7.4c-3.2,3.6-26.5,18.7-33.6,15.6
			c-7.1-3.1,3.1-7.1,16.1-21.5c13-14.5,9.4-17.7,5.8-21s-26.1-36.5-26.1-36.5s-13.4,7.6-20,11.4c-6.7,3.8,0.2,3.4-2.9,10.5
			c-3.1,7.1-2.3,20.8-5.2,31.3s-9.7,10.9-9.7,10.9s-1.5-27.5,4.6-41.6c6.1-14.1-14.1-6.1-14.1-6.1s-13.9-2.7-20.8-2.3
			c-6.9,0.4-6.5,7.2-12.8,18c-6.3,10.7,0.6,10.3,1.5,27.5c0.9,17.2,0.6,10.3,1.5,27.5c0.9,17.2,0.7,13.7-6.1,14.1
			c-6.9,0.4-10.5-2.9-18.5-23.1c-8-20.2-3-55-3-55s-20.6,1.1-50.4,23.4c-29.8,22.3,5.8,44.5,20.7,64.3c14.8,19.9,2,37.8,2.2,41.2
			c0.2,3.4-3.8-6.7-8.2-23.7c-4.4-17-14.5-13-29.7-39.7c-8.4-14.7-9.1-22.5-8-26.6c-4.4,6-13.8,18.1-29.4,35.5
			c-22.8,25.3,9.8,54.6,17.1,61.1c7.2,6.5,29.3,32.9,15.8,37.1c-13.5,4.2-50.7-45.5-50.7-45.5s-7.3,55.6,8.4,92.6
			c15.1,35.2,71.6,33.9,77.2,33.7c0.3,0,0.4,0,0.4,0l-25.6,24.7l-38.8,37.4c-1.4,1.4-2.3,3-2.7,4.8c-0.2,0.9-0.3,1.9-0.3,2.8
			c0,0.8,0.2,1.6,0.4,2.4c0.5,1.6,1.4,3.1,2.8,4.3C1253.2,831.5,1253.7,831.9,1254.3,832.2z"/>
		<g>
			<g>
				<g>
					<path class="st1" d="M1631.9,1078.2l-29,20.9l50.3-53.6c2-1,108.3-73.8,98-137c-2.7-16.4-7.7-27.8-13.7-35.5c0,0,0-0.1,0-0.1
						s-14.9-25.3-50.8-19.8c-35.9,5.5-25.2,70.8-25.2,70.8c5.7,30.8-12.1,102.8-12.1,102.8s-5.6-131.7-28.2-128.7
						c-22.6,3-35.1,36.7-18.3,59.9c16.7,23.2,33.4,63.7,29.6,88.8l-87.5,90.6c0,0-2.1-8.3,7.8-22.9c9.9-14.6,45.2-138.5,15.7-146.7
						c-29.4-8.2-63,37.6-54.5,90.3c8.6,52.6,18.3,72.7,11.4,83.2c-6.9,10.5-17.5,25.2-17.5,25.2s-2.6-113.4-28.8-114.9
						c-26.2-1.5-21.2,20-14.1,32.6c7.1,12.5,51.4,50,29.2,95.4l-55.9,55.2c0,0,17.1-145.1-16.9-148.2c-34-3.1-48.1,56.5,4.5,166.8
						l-45.8,57.2c0,0-14.6-23.6-11-47.9c3.6-24.4-29.8-63.2-37.9-33.8c-8.2,29.4,42.5,88.2,42.5,88.2s-2.7,4.1-6.8,11
						c-1.7-2-34.2-38.7-63.5-24.6c-30.1,14.5,10.6,25,25.7,23.7c12.5-1.1,29.3,4.1,34.8,6c-18.5,31.1-55.9,99.4-48.2,131.7l14.9,5.1
						c0,0,10.4-101.2,43.9-131.9c5.2,6,12.2,15.1,15.3,23.5c5.2,14.2,32.1,46.6,32.4,13.2c0.2-24.3-25.9-38.1-40.3-43.9
						c4.6-4.2,14.9-9.2,34.3,0.9c28.4,14.8,61.6,39.7,73.4,19.4c11.8-20.3-2-38.6-28.8-43.9c-26.8-5.4-65.1,5.2-65.1,5.2
						s21.2-48.8,47.3-47.7c26.1,1.1,189.1,72.9,214.1,40.8c25-32.2,29.7-56.7-29.8-56.7c-59.4,0-179.9,3.4-179.9,3.4
						s25.4-43,51.4-49.4c26-6.4,151.2,72.6,214.2-12.2c0,0-8.9-61.2-111.1-31.6c-59.3,17.2-77.8,23-82.9,24.8
						c4.9-7,53.8-74.7,85.4-69.6c33.3,5.4,70.1,12.4,111.7,2.3c41.6-10,82.3-52.3,79.5-69.1S1698.4,1022,1631.9,1078.2z"/>
				</g>
			</g>
		</g>
		<path class="st1" d="M621.4,1361c2.8-4.2,2.6-9.9-0.8-13.9l-62.3-73.4c-0.1-0.1-0.1-0.1-0.1-0.1c61.2-12.2,44.9-77.5,44.9-85.7
			c0-8.2-4.1-36.7-8.2-36.7s-20.4,12.2-28.5,12.2c-8.2,0,28.5-32.6,20.4-44.9c-8.2-12.2-4.1-8.2-8.2-16.3
			c-4.1-8.2-4.1-12.2-4.1-24.5s-20.4-20.4-24.5-24.5c-4.1-4.1-8.2,24.5-12.2,24.5c-4.1,0,0-12.2,0-28.6c0-16.3-12.2-8.2-20.4-16.3
			c-8.2-8.2-20.4-4.1-32.6-8.2c-12.2-4.1-4.1,12.2-4.1,32.7c0,20.4-24.5,48.9-20.4,36.7c4.1-12.2,0-57.2,0-57.2s4.1-8.2-16.3-20.4
			c-20.4-12.2-77.5-4.1-77.5-4.1c12.2,4.1,4.1,49,8.2,61.2s-12.2,8.2-20.4-4.1c-8.2-12.2,0-20.5-20.4-36.8
			c-20.4-16.3-48.9,12.2-48.9,12.2s4.1,8.2,8.2,12.3c4.1,4.1,20.4,32.6,16.3,40.8c-4.1,8.2-8.2-4.1-24.5-20.4
			c-16.3-16.3-20.4-12.2-24.5-8.2c-4.1,4.1-44.9,28.5-44.9,28.5s8.2,16.3,12.2,24.5c4.1,8.2,4.1,0,12.2,4.1
			c8.2,4.1,24.5,4.1,36.8,8.2c12.2,4.1,12.2,12.2,12.2,12.2s-32.6,0-49-8.2c-16.3-8.2-8.2,16.3-8.2,16.3s-4.1,16.3-4.1,24.5
			c0,8.2,8.2,8.2,20.5,16.3c12.2,8.2,12.2,0,32.6,0c20.4,0,12.2,0,32.6,0c20.4,0,16.3,0,16.3,8.2c0,8.2-4.1,12.3-28.5,20.5
			c-24.5,8.2-65.3,0-65.3,0s0,24.5,24.5,61.2c24.5,36.7,53-4.1,77.5-20.4c24.5-16.3,44.9,0,48.9,0s-8.2,4.1-28.5,8.2
			c-20.4,4.1-16.3,16.3-48.9,32.6c-17.9,9-27.2,9.3-32,7.8c6.8,5.6,20.5,17.5,40.1,37.1c28.5,28.6,65.2-8.2,73.4-16.3
			c8.2-8.2,40.8-32.6,44.9-16.3c4.1,16.3-57.2,57.2-57.2,57.2s65.3,12.2,110.2-4.1c42.6-15.6,44.7-82.6,44.9-89.3c0-0.4,0-0.5,0-0.5
			l27.6,31.9l41.8,48.4c1.5,1.8,3.4,2.9,5.5,3.5c1.1,0.3,2.2,0.5,3.3,0.5c0.9,0,1.9-0.1,2.8-0.4c1.9-0.5,3.8-1.5,5.3-3
			C620.6,1362.2,621,1361.6,621.4,1361z"/>
		<ellipse class="st2" cx="1154" cy="1571.5" rx="140.2" ry="18.8"/>
		<ellipse class="st2" cx="452" cy="1577.6" rx="90" ry="15.7"/>
		<g>
			<path class="st3" d="M1313.4,1465.4H766.5c-34.3,0-62-27.8-62-62V545.2c0-34.3,27.8-62,62-62h546.9c34.3,0,62,27.8,62,62v858.1
				C1375.4,1437.6,1347.6,1465.4,1313.4,1465.4z"/>
			<path class="st4" d="M1243.2,1455.2H769.1c-30.8,0-55.7-24.9-55.7-55.7V549.1c0-30.8,24.9-55.7,55.7-55.7h474.1
				c30.8,0,55.7,24.9,55.7,55.7v850.4C1298.9,1430.2,1273.9,1455.2,1243.2,1455.2z"/>
			<path class="st5" d="M1231.9,1446.3H773.5c-27.8,0-50.4-22.5-50.4-50.4v-789h559.1v789
				C1282.3,1423.7,1259.7,1446.3,1231.9,1446.3z"/>
			<path class="st5" d="M1153.7,564.8H865.8c-5.5,0-10-4.5-10-10v-2.2c0-5.5,4.5-10,10-10h287.9c5.5,0,10,4.5,10,10v2.2
				C1163.7,560.3,1159.2,564.8,1153.7,564.8z"/>
			<rect x="746.3" y="712.8" class="st2" width="512.8" height="313.8"/>
			<path class="st2" d="M1237.3,636.2H768.1c-12.1,0-21.8,9.8-21.8,21.8v4.8c0,12.1,9.8,21.8,21.8,21.8h469.1
				c12.1,0,21.8-9.8,21.8-21.8v-4.8C1259.1,646,1249.3,636.2,1237.3,636.2z"/>
			<path class="st2" d="M1249.9,1091.6H755.5c-5.1,0-9.2-4.1-9.2-9.2v-2c0-5.1,4.1-9.2,9.2-9.2h494.4c5.1,0,9.2,4.1,9.2,9.2v2
				C1259.1,1087.5,1255,1091.6,1249.9,1091.6z"/>
			<path class="st2" d="M1120.1,1124.8h-371c-1.5,0-2.8-1.2-2.8-2.8v-8.5c0-1.5,1.2-2.8,2.8-2.8h371c1.5,0,2.8,1.2,2.8,2.8v8.5
				C1122.8,1123.6,1121.6,1124.8,1120.1,1124.8z"/>
			<path class="st2" d="M1250.2,1158H749.1c-1.5,0-2.8-1.2-2.8-2.8v-5.9c0-1.5,1.2-2.8,2.8-2.8h501.1c1.5,0,2.8,1.2,2.8,2.8v5.9
				C1253,1156.7,1251.7,1158,1250.2,1158z"/>
			<path class="st2" d="M1250.2,1189.9H749.1c-1.5,0-2.8-1.2-2.8-2.8v-5.9c0-1.5,1.2-2.8,2.8-2.8h501.1c1.5,0,2.8,1.2,2.8,2.8v5.9
				C1253,1188.6,1251.7,1189.9,1250.2,1189.9z"/>
			<path class="st2" d="M1250.2,1221.7H749.1c-1.5,0-2.8-1.2-2.8-2.8v-5.9c0-1.5,1.2-2.8,2.8-2.8h501.1c1.5,0,2.8,1.2,2.8,2.8v5.9
				C1253,1220.5,1251.7,1221.7,1250.2,1221.7z"/>
			<path class="st2" d="M1250.2,1253.6H749.1c-1.5,0-2.8-1.2-2.8-2.8v-5.9c0-1.5,1.2-2.8,2.8-2.8h501.1c1.5,0,2.8,1.2,2.8,2.8v5.9
				C1253,1252.4,1251.7,1253.6,1250.2,1253.6z"/>
			<path class="st2" d="M1250.2,1285.5H749.1c-1.5,0-2.8-1.2-2.8-2.8v-5.9c0-1.5,1.2-2.8,2.8-2.8h501.1c1.5,0,2.8,1.2,2.8,2.8v5.9
				C1253,1284.3,1251.7,1285.5,1250.2,1285.5z"/>
			<polygon class="st5" points="976.1,798.2 976.1,943.7 1048.9,870.9 			"/>
		</g>
		<g>
			<path class="st6" d="M1034,1510.6H337c-48.2,0-87.3-39.1-87.3-87.3v0c0-48.2,39.1-87.3,87.3-87.3h697V1510.6z"/>
			<path class="st7" d="M1034,1489.1H508.2c-36.4,0-65.9-29.5-65.9-65.9v0c0-36.4,29.5-65.9,65.9-65.9H1034V1489.1z"/>
			<rect x="498.4" y="1385.4" class="st2" width="512.4" height="9.2"/>
			<rect x="498.4" y="1418.7" class="st2" width="512.4" height="9.2"/>
			<rect x="498.4" y="1452.1" class="st2" width="512.4" height="9.2"/>
			<path class="st8" d="M771.8,1385.2v67.4l28.3-28.3l29.1,29.1v-68.2C829.3,1385.2,771.8,1383.6,771.8,1385.2z"/>
		</g>
		<g>
			<path class="st3" d="M1761.5,1518h-739.1c-51.1,0-92.6-41.5-92.6-92.6v0c0-51.1,41.5-92.6,92.6-92.6h739.1V1518z"/>
			<path class="st7" d="M1761.5,1495.3h-557.5c-38.6,0-69.8-31.3-69.8-69.8v0c0-38.6,31.3-69.8,69.8-69.8h557.5V1495.3z"/>
			<rect x="1193.6" y="1385.3" class="st2" width="543.3" height="9.7"/>
			<rect x="1193.6" y="1420.7" class="st2" width="543.3" height="9.7"/>
			<rect x="1193.6" y="1456" class="st2" width="543.3" height="9.7"/>
			<path class="st8" d="M1483.5,1385.1v71.5l30-30l30.9,30.9v-72.3C1544.4,1385.1,1483.5,1383.5,1483.5,1385.1z"/>
		</g>
		<g>
			<path class="st9" d="M1216.3,1335.9h-697c-48.2,0-87.3-39.1-87.3-87.3v0c0-48.2,39.1-87.3,87.3-87.3h697V1335.9z"/>
			<path class="st7" d="M1216.3,1314.5H690.5c-36.4,0-65.9-29.5-65.9-65.9v0c0-36.4,29.5-65.9,65.9-65.9h525.8V1314.5z"/>
			<rect x="680.7" y="1208" class="st2" width="512.4" height="9.2"/>
			<rect x="680.7" y="1241.3" class="st2" width="512.4" height="9.2"/>
			<rect x="680.7" y="1274.7" class="st2" width="512.4" height="9.2"/>
			<path class="st8" d="M954.1,1207.8v67.4l28.3-28.3l29.1,29.1v-68.2C1011.6,1207.8,954.1,1206.2,954.1,1207.8z"/>
		</g>
		<g>
			<g>
				<g>
					<path class="st3" d="M529.3,1140.7c0,0-3-21.5-8.4-27.6c0,0-3-5.4-7.1-2.4s-1.9,51.5-1.9,51.5l19.9-1.5L529.3,1140.7z"/>
					<path class="st10" d="M537.8,1140.1l-17,1.8c0,0-6.7,12.1,3.1,16.1c9.9,4,14.4,3.2,14.4,3.2L537.8,1140.1z"/>
					<path class="st3" d="M619.2,1118.2l171.8-5.4l-61.3-51.7c0,0-37.3-51.7-55.4-46.4C656.2,1020,619.2,1118.2,619.2,1118.2z
						 M643,1113.2c14.6-7.1,40.9-46.9,40.9-46.9c3.2,37.7,48.3,46.9,49.4,47.2C734.3,1113.9,643,1113.2,643,1113.2z"/>
					<path class="st3" d="M536.4,1133.8c0,0,206.6-44.5,256.7-21l32.8,23.2c0,0-4,23.7-29,25.3c-25,1.6-260.7,0.1-260.7,0.1
						L536.4,1133.8z"/>
					<path class="st11" d="M738.8,956.6l25.8-26.1c0,0,54.8,20,71.6,72.7c16.8,52.8,3.2,127.9-10.4,132.7c0,0-85.5-56.7-85.5-59.1
						C740.3,1074.4,748.4,982.2,738.8,956.6z"/>
					<polygon class="st9" points="658.3,1087.2 630.6,1049.4 596,1052 646.6,1118.1 735,1118.1 718.5,1085.6 					"/>
					<polygon class="st4" points="660.7,1089.4 651.1,1112.9 728.6,1113.9 716.5,1087.3 					"/>
					<polygon class="st5" points="629.7,1052.6 602.5,1055.6 645.5,1111.7 656.2,1089.1 					"/>
					<path class="st12" d="M735.6,988.1c0,0,2.4-40,24.8-25.6c22.4,14.4,31.2,87.9,27.2,103.9c-4,16-68.7,44.8-68.7,44.8l-12.8-28
						c0,0,34.4-22.4,36-28.8C743.5,1048,735.6,988.1,735.6,988.1z"/>
					<path class="st10" d="M706,1083.2c0,0-14.1-0.8-15.2,0.8c-1.1,1.6-0.5,6.4-0.5,6.4s-16,1.3-16,4.8c0,3.5,5.3,4,9.1,7.2
						c3.7,3.2,4.5,6.1,8.5,6.9c4,0.8,6.7,0.8,9.6,0.8c2.9,0,15.5-3.5,15.5-3.5L706,1083.2z"/>
					<path class="st10" d="M686.5,923.1c0,0,19.7,43.2,33,39.4c13.3-3.7,17.1-8.5,17.1-8.5l2.7,3.2l25.6-26.6l-12.3-3.7
						c0,0-20.2-38.4-38.4-32C696.1,901.2,686.5,923.1,686.5,923.1z"/>
				</g>
				<g>
					<ellipse transform="matrix(0.866 -0.5 0.5 0.866 -373.1566 476.5165)" class="st3" cx="702.6" cy="934.6" rx="1.2" ry="3.1"/>
					<ellipse transform="matrix(0.866 -0.5 0.5 0.866 -375.6718 474.2145)" class="st3" cx="697.1" cy="938.1" rx="1.2" ry="3.1"/>
					<path class="st3" d="M704.2,947.3c-0.6,0-1.3-0.2-1.8-0.6c-0.6-0.5-0.7-1-0.6-1.4c0.2-0.8,1-1.3,1.6-1.5l-3.9-6.9l0.9-0.5
						l4.5,7.9l-0.6,0.2c-0.6,0.2-1.5,0.7-1.5,1c0,0.1,0.1,0.3,0.3,0.4c1,0.9,3,0,3.7-0.4l0.5,0.8
						C707.2,946.4,705.7,947.3,704.2,947.3z"/>
					<path class="st3" d="M706.8,951.1l-0.1-1c0.3,0,8.2-1.1,8.2-8.5h1C715.8,949.9,706.9,951.1,706.8,951.1z"/>
					<path class="st3" d="M699.4,931.4c0,0,0.6-1.5,2.8-1.8c2.2-0.3,3.4-1.8,2.5-2.1s-4.5,0.4-5.3,1.3
						C698.6,929.7,697,931,699.4,931.4z"/>
					<path class="st3" d="M696.8,933.3c0,0-1.2-0.3-2.2,0.5c-1.2,0.9-2.5,0.7-2.2,0.2c0.3-0.5,2.4-1.9,3.2-1.9
						C696.3,932.1,697.8,932,696.8,933.3z"/>
				</g>
			</g>
			<path class="st3" d="M701.9,917.2c0,0-11.7,16.3-23,11c-11.2-5.4-14-30.6,4.3-36.5c18.4-5.9,33.2-23,49.5-1.3
				c16.3,21.7,21.5,36.8,19.8,36.4s-5.5,5.7-13.4,0.9c-7.9-4.9-7.1-8.9-10.2-11.7c-3.1-2.8-8.7-5.9-9.2-1.8
				c-0.5,4.1,4.6,10,1.3,10.5c-3.3,0.5-8.9-7.1-10.5-8.7S702.9,915.2,701.9,917.2z"/>
		</g>
		<g>
			<path class="st3" d="M836.2,1005.6c0,0-29.9,27.1-24.9,65.7c5,38.7,55.8,79.3,55.8,79.3l-1.3-26.3c0,0-67.9-53.1-23.5-82.9
				c0,0,17.2-5,17.6-9.6c0.4-4.6-3.4-11.9-4.6-14.2C854.2,1015.4,836.2,1005.6,836.2,1005.6z"/>
			<path class="st4" d="M836.2,1005.6l28.1,156.3h94c0,0-52.1-152.2-86.8-155.7S836.2,1005.6,836.2,1005.6z"/>
			<path class="st3" d="M906.6,1091.9l16.1,70h51.9C974.6,1161.9,961,1071.2,906.6,1091.9z"/>
			<polygon class="st3" points="906.6,1091.9 881.1,1010.4 884.8,1013.3 911,1090.7 908.2,1093 			"/>
		</g>
		<g>
			<g>
				<polygon class="st13" points="1195.9,1527.6 1195.9,1552.2 1163.8,1552.2 1163.8,1526.9 				"/>
				<path class="st3" d="M1195.9,1552.2c0,0,34.6,10.3,36,12.3s1.4,7.2,1.4,7.2h-70.2c0,0-1-17.1,0.7-19.5
					C1163.8,1552.2,1195.6,1551.9,1195.9,1552.2z"/>
				<polygon class="st9" points="1235.3,1570.5 1185.2,1567.6 1162.9,1567.6 1162.9,1575.3 1185.2,1575.3 1185.2,1571.6 
					1235.3,1575.8 				"/>
			</g>
			<g>
				<polygon class="st13" points="1114.7,1527.6 1114.7,1552.2 1082.5,1552.2 1082.5,1526.9 				"/>
				<path class="st3" d="M1114.7,1552.2c0,0,34.6,10.3,36,12.3s1.4,7.2,1.4,7.2h-70.2c0,0-1-17.1,0.7-19.5
					C1082.5,1552.2,1114.3,1551.9,1114.7,1552.2z"/>
				<polygon class="st9" points="1154.1,1570.5 1103.9,1567.6 1081.6,1567.6 1081.6,1575.3 1103.9,1575.3 1103.9,1571.6 
					1154.1,1575.8 				"/>
			</g>
			<path class="st3" d="M1091.2,999c0,0-3.1-31.5,0.3-33.2c3.4-1.7,3.8-2.1,3.8-3.4s-1-12.3,7.2-16.1c8.2-3.8,21.2-6.3,31.8-5.8
				c17.8,0.7,20.2,25,25.3,29.8c5.1,4.8-15.4,25.7-16.8,26.4s-11.3,5.1-16.4,7.9c-5.1,2.7-14,6.2-14,6.2s-4.5,0.7-9.2-0.7
				C1098.4,1008.6,1091.2,999,1091.2,999z"/>
			<path class="st14" d="M1146.6,1173.9l-13.1-122.8c-1.1-10.5-8.2-19.1-17.9-22.5c0.6-1.7,0.9-3.6,0.9-5.5
				c0-9.1-7.4-16.4-16.4-16.4h-15.4c-9.1,0-16.4,7.4-16.4,16.4c0,2.9,0.8,5.7,2.1,8c-23.9,9.5-41.5,32.2-43.1,59.7l-5.6,94.3
				c-1,16.9,13.7,30.4,30.4,28.1l71.4-10C1138,1201.3,1148.2,1188.3,1146.6,1173.9z M1075.6,1023.2c0-5.1,4.2-9.3,9.3-9.3h15.4
				c5.1,0,9.3,4.2,9.3,9.3c0,1.5-0.3,2.8-0.9,4l-6.8-0.6c-8.4-0.7-16.5,0.1-24.2,2.2C1076.3,1027.3,1075.6,1025.3,1075.6,1023.2z"/>
			<rect x="1103" y="1020.8" class="st10" width="31.5" height="47.8"/>
			<path class="st10" d="M1196.1,1128.1l6.7,18.1c0,0,29.4-30.8,47.9-41.8c0,0,4.1-8.2,2.1-15.8s-8.2-15.8-2.7-15.8
				c5.5,0,11.6,11,11.6,11s13-33.9,16.8-31.2c3.8,2.7,1.7,8.9,1.7,8.9s6.5-4.5,6.2,3.8c0,0,5.1-0.7,4.5,4.5c0,0,4.1,0,3.8,3.8
				c-0.3,3.8-3.7,21.9-20.3,33.3c-6.9,4.8-23.9,52.6-75.6,70.4c0,0-18.1,8.2-25.3-15.1c-7.2-23.3-6.2-40.7-6.2-40.7L1196.1,1128.1z"
				/>
			<polygon class="st4" points="1078.2,1246.2 1082.3,1531.1 1128.8,1531.1 1135.7,1286 1156.2,1424.3 1152.1,1531.1 1195.9,1531.1 
				1201.4,1413.3 1179.5,1227.1 			"/>
			<path class="st11" d="M1134.5,1035.5l10.3,11.6c0,0,25.3-4.8,37,20.7s14.4,60.3,14.4,60.3l-25.5,0.3l15.1,97.2
				c0,0-32.2,41.1-116.4,20.5l-7.5-100l12.3-21.9l-39.7-15.8c0,0,23.3-60.3,45.9-68.5c5.6-2,24.2-0.8,24.2-0.8l21,7.6L1134.5,1035.5
				z"/>
			<polygon class="st14" points="1102.9,1030.9 1125.4,1047 1134.5,1035.5 1144.7,1047.1 1131.5,1060.9 1125.6,1052.7 
				1119.9,1062.7 1096,1038.9 			"/>
			<path class="st14" d="M1083.1,1039.8c0,0,16.8,37.7-9.1,84.6l-12.3,21.9l3.9,9.1c0,0,24.7-23.1,27.2-33.4
				c2.6-10.3,18.6-52.2,3.1-83.1C1096,1038.9,1089.5,1035.3,1083.1,1039.8z"/>
			<path class="st14" d="M1150.4,1047c0,0,26.4,29.4,20.2,81.5l2.4,15.8c0,0-10.6-22.6-14.7-42.1c-4.1-19.5-13.5-55-13.5-55
				L1150.4,1047z"/>
			<g>
				<path class="st5" d="M1136.4,1190.4h-34.1v-103.8h32.2c11.1,0,20,9,20,20v65.6C1154.5,1182.3,1146.4,1190.4,1136.4,1190.4z"/>
				<rect x="1086.7" y="1086.7" class="st4" width="52.2" height="103.8"/>
			</g>
			<path class="st10" d="M1037.1,1109.5c0,0-25.9,40.9-11.3,60.7c16.5,22.4,55.5,7.9,92.1-14.7c0,0,19.9-9.6,21.9-10.3
				s27.7-11,22.6-19.9c0,0,3.4-7.9-0.7-10.3c0,0,3.4-9.6-3.1-9.9c0,0,0.5-8.2-9.8-4.1s-12.7,8-12.7,8s3.3-10.6,2.2-12.3
				c-1-1.7-5.6-1.5-8.4,4.1c-2.7,5.6-6.2,17.5-6.2,17.5l-7.9,8.6c0,0-32.9,28.1-54.3,19.3l12.3-21.9L1037.1,1109.5z"/>
			<path class="st10" d="M1103,1020.8c0,0,25.5,11.8,35.8,3.9c10.3-7.9,5.8-48.6,5.8-48.6s-1.7-0.3-7.2-4.8c-5.5-4.5-6.8-2.7-6.8,0
				c0,2.7-6.2,2.4-12-1.4c-5.8-3.8-1.7,0.7-3.8,4.1c-2.1,3.4-8.2,1.4-12.3-0.7c-4.1-2.1-0.3,4.5-0.3,13c0,8.6,0,19.2-3.8,11.6
				c-3.8-7.5-6.2-10.3-7.5-7.5c-1.4,2.7-5.8,13.7,0,17.5c5.8,3.8,7.2,0,7.2,0S1096,1016.8,1103,1020.8z"/>
			<path class="st14" d="M1142.6,1112.6l-0.4-0.1c0.3-1.5,1-2.6,2.1-3.3c2.1-1.2,4.9-0.5,5.5-0.3l8.8-3.9l0.2,0.4l-9,4l-0.1,0
				c0,0-3.1-1-5.2,0.3C1143.5,1110.2,1142.8,1111.2,1142.6,1112.6z"/>
			<path class="st14" d="M1146.2,1121.2l-0.4-0.2c0.7-2.1,1.9-3.4,3.5-4.1c2.4-1,5,0,5.5,0.2l6.9-2.2l0.1,0.4l-7.1,2.3l-0.1,0
				c0,0-2.7-1.2-5.2-0.2C1147.9,1118,1146.9,1119.2,1146.2,1121.2z"/>
			<path class="st14" d="M1149.8,1130.2l-0.4-0.1c0.4-1.5,1.1-2.4,2.2-2.9c2-0.9,4.3,0.1,4.8,0.4l5.9-2.4l0.2,0.4l-6.1,2.4l-0.1,0
				c0,0-2.6-1.3-4.6-0.4C1150.8,1128,1150.1,1128.9,1149.8,1130.2z"/>
			<path class="st14" d="M1283.2,1089.3c-2-10.4-14.8-14.7-14.9-14.7l0.1-0.4c0.1,0,13.2,4.4,15.2,15.1L1283.2,1089.3z"/>
			
				<rect x="1268.5" y="1068.9" transform="matrix(0.4053 -0.9142 0.9142 0.4053 -218.2354 1802.8124)" class="st14" width="16.1" height="0.4"/>
			
				<rect x="1274.1" y="1072.6" transform="matrix(0.4659 -0.8849 0.8849 0.4659 -264.3289 1707.8234)" class="st14" width="16.7" height="0.4"/>
			
				<rect x="1277.5" y="1077.7" transform="matrix(0.462 -0.8869 0.8869 0.462 -263.8247 1720.9945)" class="st14" width="18.1" height="0.4"/>
			<path class="st14" d="M1277.7,1096.2c-1.3-1.5-8-2.5-8.1-2.5l-0.2,0l0-0.2c-0.2-4.5-6.5-6.9-6.6-6.9l-0.1,0l0-0.1
				c-4.1-8.4-9.9-12.4-10-12.5l0.3-0.4c0.1,0,5.9,4.1,10.1,12.6c0.8,0.3,6.4,2.6,6.8,7.1c1.1,0.2,6.9,1.2,8.2,2.7L1277.7,1096.2z"/>
			<path class="st14" d="M1097,1003.9l-0.4-0.1c1.2-4.4-1.7-7.7-3.5-9.2c-0.3-0.2-0.4-0.2-0.5-0.2c-0.7,0.3-1.1,3-1.2,4.7l-0.4,0
				c0-0.5,0.3-4.6,1.5-5.1c0.2-0.1,0.5-0.1,0.9,0.2C1095.3,995.8,1098.2,999.3,1097,1003.9z"/>
			<path class="st14" d="M1092.9,999.8c-0.2-1.5,0-2.6,0.6-3.2c0.6-0.7,1.4-0.7,1.4-0.7l0,0.4c0,0-0.6,0-1.1,0.5
				c-0.5,0.6-0.7,1.6-0.5,2.9L1092.9,999.8z"/>
			<path class="st14" d="M1129.8,1005.8c-0.1,0-0.2,0-0.3,0l0-0.4c2.6,0,4.3-0.4,5.3-1.5c1-1,1-2.5,0.9-3.6c0-0.5-0.2-0.8-0.6-1.1
				c-1.2-0.8-3.8,0-3.8,0l-0.3,0.1l0.1-13.7l0.4,0l-0.1,13.1c0.8-0.2,2.8-0.6,3.9,0.2c0.5,0.3,0.7,0.8,0.7,1.4c0.1,1.2,0,2.8-1.1,4
				C1134.1,1005.3,1132.3,1005.8,1129.8,1005.8z"/>
			<path class="st14" d="M1130.2,1015.2c-0.3,0-0.5,0-0.8,0c-3.3-0.3-6.4-2.5-9-6.5l0.4-0.2c2.6,3.9,5.5,6,8.7,6.3
				c4.8,0.4,8.6-3.5,8.6-3.5l0.3,0.3C1138.3,1011.7,1134.8,1015.2,1130.2,1015.2z"/>
			<path class="st14" d="M1129.7,1018.2c-0.1,0-0.3,0-0.4,0c-2-0.1-4-1.3-5.7-3.4l0.3-0.3c1.7,2,3.5,3.1,5.4,3.2
				c2.5,0.2,4.3-1.4,4.4-1.5l0.3,0.3C1133.9,1016.6,1132.2,1018.2,1129.7,1018.2z"/>
			<ellipse class="st14" cx="1138.6" cy="991.2" rx="1.2" ry="2.8"/>
			<ellipse class="st14" cx="1119.7" cy="991.2" rx="1.2" ry="2.8"/>
			<path class="st14" d="M1134.8,983.7c0.2,0.1,3.3-0.9,5.6,0.3c2.3,1.3,3.2-0.3,2.7-1.4c-0.4-1.1-4.5-2.8-6-2.2
				C1135.7,981,1131.3,981.6,1134.8,983.7z"/>
			<path class="st14" d="M1116.5,984.6c0.2,0.1,3.3-0.9,5.6,0.3c2.3,1.3,3.2-0.3,2.7-1.4c-0.4-1.1-4.5-2.8-6-2.2
				C1117.4,981.9,1113,982.4,1116.5,984.6z"/>
		</g>
		<g>
			<g>
				<ellipse class="st2" cx="1680.8" cy="1565.1" rx="134" ry="19.9"/>
				<g>
					<g>
						<path class="st3" d="M1688.5,1061.5c0,0-22.6-42.6,3.8-52.7c26.3-10,55.2,2.5,67.7,36.4c12.5,33.9,11.3,32.6,27.6,47.7
							c16.3,15,30.1,3.8,33.9,32.6c3.8,28.8,20.1,22.6,18.8,47.7c-1.3,25.1,2.5,35.1-40.1,38.9c-42.6,3.8-65.2-1.3-74-15
							c-8.8-13.8-18.8-72.7-18.8-84c0-11.3-1.3-27.6-1.3-27.6L1688.5,1061.5z"/>
						<path class="st5" d="M1690.7,1099.4c0,0-12.3-2-17.4,6.8c-5,8.8-22,35.5-22,35.5l24.2,0.8l15-26.8L1690.7,1099.4z"/>
						<path class="st10" d="M1730.4,1106.6c0-1.6-1.6-28.2-1.6-28.2s7.1-5.8,7.8-10.4c0,0,10,0,8.1-9.7c-1.9-9.7-10.4-3.2-10.4-3.2
							l-2.9,5.8c0,0-3.2-9.4-13.3-13.6c-10-4.2-12.3-10-12.3-10s-12.6,9.4-14.6,15.9s-4.5,22.7,2.3,31.1s12.6,5.5,12.6,5.5
							l-1.3,14.3l-0.6,24.6l25.9-19.1L1730.4,1106.6z"/>
						<path class="st4" d="M1745.2,1204.7h-69.9c0,0-9.1-55.4-0.9-71.7s16.3-33.6,16.3-33.6l14.5-0.9v26.3l25.4-21.8l20,1.8
							l9.1,43.6L1745.2,1204.7z"/>
						<path class="st11" d="M1745.2,1204.7c0,0,30.5,63.2,25.7,121.3c-4.8,58.1,0.6,216,0.6,216l-34.5-0.6l-29-220.2l-57.5,223.2
							h-30.9c0,0,30.2-298.8,58.1-339.4L1745.2,1204.7z"/>
						<path class="st5" d="M1750.6,1104.8c0,0,56.3,72.6,52.6,86.2c-3.6,13.6-14.5,18.1-30.9,10.9s-46.3-20.9-46.3-20.9l2.7-12.7
							l19.1-1.8l-12.7-30.9C1735.2,1135.7,1727.9,1102.1,1750.6,1104.8z"/>
						<path class="st3" d="M1659,1051.9l99.1,238.7c6.5,15.7-4.7,33.1-21.7,33.7h0c-10,0.4-19.2-5.4-23.2-14.6l-102.8-235.3
							L1659,1051.9z"/>
						<path class="st10" d="M1651.7,1151.1c0,0,10,15.4,1.8,21.8c-8.2,6.4-9.7,2.4-9.7,2.4l-10.3-21.8
							C1633.5,1153.5,1642,1142.4,1651.7,1151.1z"/>
						<path class="st10" d="M1728.8,1168.4c0,0-23.1-11.6-29-6.5s-5.4,13.4-5.4,13.4l31.7,5.9L1728.8,1168.4z"/>
						<path class="st3" d="M1736.7,1541.4c0,0-5.9,10-20.1,10s-20.1,6.7-20.1,6.7l-0.8,9.2l59.4-10.9v10.9h11.7l0.8-25.9H1736.7z"/>
						<path class="st3" d="M1619.2,1544.3c0,0-5.9,10-20.1,10c-14.2,0-20.1,6.7-20.1,6.7l-0.8,9.2l59.4-10.9v10.9h11.7l0.8-25.9
							H1619.2z"/>
					</g>
					<g>
						<path class="st3" d="M1702,1072c-0.6-0.3-5.7-2.6-6.5-4.4c-0.2-0.4-0.2-0.8,0-1.1c0.6-1.3,3.4-2,4.5-2.3l0.8-8.6l1,0.1
							l-0.9,9.3l-0.4,0.1c-1.5,0.3-3.8,1.1-4.1,1.9c0,0.1,0,0.2,0,0.3c0.5,1.1,4,3,6.1,3.9L1702,1072z"/>
						<ellipse class="st3" cx="1708.3" cy="1058" rx="1.9" ry="3.1"/>
						<ellipse class="st3" cx="1694.5" cy="1058" rx="1.9" ry="3.1"/>
						<path class="st3" d="M1697.5,1075.2c0,0,5.6,3.2,12.6-3L1697.5,1075.2z"/>
						<path class="st3" d="M1713.8,1052c0,0-6.6,0.1-7.9-0.6c-1.4-0.7,1.1-2.4,3-2.1c2,0.3,6,0.8,6.1,1.7
							C1715.1,1051.9,1713.8,1052,1713.8,1052z"/>
						<path class="st3" d="M1692.1,1051.9c0,0,5.1,0.1,6.1-0.5c1-0.5-0.8-1.9-2.3-1.6c-1.5,0.2-4.6,0.6-4.7,1.3
							C1691,1051.8,1692.1,1051.9,1692.1,1051.9z"/>
					</g>
					<g>
						<path class="st3" d="M1734.5,1062.7c0-0.1-1.9-5.5,2.5-8c1.1-0.6,2.1-0.7,3-0.2c2.4,1.1,3.2,5.5,3.2,5.7l-1,0.2
							c-0.2-1.1-1-4.2-2.6-5c-0.6-0.3-1.3-0.2-2,0.2c-3.7,2.1-2.2,6.6-2.1,6.7L1734.5,1062.7z"/>
						<path class="st3" d="M1735,1059l-0.8-0.7c1.2-1.4,2.4-2,3.6-1.9c1.7,0.2,2.6,1.9,2.6,2l-0.9,0.5c0,0-0.7-1.3-1.9-1.4
							C1736.9,1057.3,1736,1057.9,1735,1059z"/>
					</g>
				</g>
			</g>
			<polygon class="st10" points="1659,1051.9 1610.4,1074.4 1605.7,1037.1 1600.9,998 1621.1,1016.8 			"/>
			<path class="st3" d="M1621.1,1016.8c-3.8,14.5-15.2,20.2-15.2,20.2s-0.1,0-0.2,0.1l-4.9-39.1L1621.1,1016.8z"/>
			<polygon class="st5" points="1705.2,1291.7 1750.3,1271.8 1746.8,1263.5 1701.3,1282.7 			"/>
			
				<rect x="1677.1" y="1054.6" transform="matrix(0.918 -0.3967 0.3967 0.918 -326.0867 761.7281)" class="st5" width="2.7" height="229.3"/>
		</g>
		<g>
			<path class="st11" d="M1681.9,702.6c0-63.1-51.1-114.2-114.2-114.2c-63.1,0-114.2,51.1-114.2,114.2c0,43.9,24.8,82,61.1,101.1
				v24.1l18.1,19.2h70.9l17.1-20.2v-23C1657.1,784.6,1681.9,746.5,1681.9,702.6z"/>
			<path class="st5" d="M1581.9,851.1c-0.1-4.1-1.2-64.2,0.6-114.5c-10.3,0-21.3-1.2-31.7-2.7l1,114.5l-3,0l-1-115
				c-11.9-1.8-22.8-4.1-30.4-5.7c-13.8-2.9-22.6-12.4-23.5-25.5c-0.9-12.9,7-29.1,23.8-34.9c5.2-1.8,9.9-1.3,14.1,1.5
				c16.7,11.2,18.9,55.9,19,57.8l0,4.2c10.4,1.5,21.5,2.7,31.8,2.8c1.2-30.8,3.5-57.4,7.8-64.1c4-6.2,9-8.8,14.2-7.6
				c10.6,2.6,18.9,20.9,21.2,46.6c0.7,7.9-1.6,14.3-6.8,19c-7.2,6.4-19.6,8.9-33.5,9.1c-1.3,38.1-1.2,84.1-0.6,114.4L1581.9,851.1z
				 M1602.1,664.7c-4,0-7.1,3.4-9.1,6.5c-3.9,6.1-6.2,31.3-7.3,62.5c13.2-0.2,24.7-2.5,31.4-8.4c4.5-4,6.4-9.4,5.8-16.4
				c-2.5-27.7-11.3-42-18.9-43.9C1603.3,664.7,1602.7,664.7,1602.1,664.7z M1523.5,669.3c-1.5,0-3.1,0.3-4.8,0.9
				c-15.3,5.4-22.5,20.1-21.8,31.9c0.8,11.6,8.6,20.1,21,22.7c7.5,1.6,18.1,3.8,29.8,5.6l0-3.6c0-0.4-2.2-45-17.6-55.4
				C1528,670,1525.9,669.3,1523.5,669.3z"/>
			<path class="st6" d="M1568.1,916.7h-0.8c-15.9,0-28.9-12.9-28.9-28.9v-11h58.5v11C1597,903.8,1584.1,916.7,1568.1,916.7z"/>
			<rect x="1532.5" y="846.9" class="st5" width="70.4" height="39.9"/>
			<rect x="1539.4" y="855.6" class="st6" width="56.7" height="1.9"/>
			<rect x="1539.4" y="862.6" class="st6" width="56.7" height="1.9"/>
			<rect x="1539.4" y="869.6" class="st6" width="56.7" height="1.9"/>
			<rect x="1539.4" y="876.6" class="st6" width="56.7" height="1.9"/>
		</g>
		<g>
			<path class="st4" d="M626.4,813.9H425.8c-4.2,0-7.5,3.4-7.5,7.5v83c0,4.2,3.4,7.5,7.5,7.5h116.1l37.7,34.5l-2.4-34.5h49.2
				c4.2,0,7.5-3.4,7.5-7.5v-83C633.9,817.3,630.5,813.9,626.4,813.9z"/>
			<rect x="432.2" y="835.4" class="st5" width="187.7" height="6.1"/>
			<rect x="432.2" y="852.2" class="st5" width="187.7" height="6.1"/>
			<rect x="432.2" y="869.1" class="st5" width="187.7" height="6.1"/>
			<rect x="432.2" y="885.9" class="st5" width="187.7" height="6.1"/>
		</g>
		<g>
			<path class="st6" d="M1441.4,970.1c-1.8-2.6-6.1-0.8-8.3,0.3l1.2-7.8c1.4-9-4.7-17.5-13.8-18.9c-9-1.4-17.5,4.7-18.9,13.8
				l-25.3,161.5c-1.4,9,4.7,17.5,13.8,18.9c9,1.4,17.5-4.7,18.9-13.8l20.4-130.6l1.5-0.1c0,0-1.1,35.5-1.1,48.7
				c0,13.2,7.2,9.9,7.2,9.9S1443.9,973.7,1441.4,970.1z"/>
			<path class="st15" d="M1476,1004.5c-1.2-1.7-4.1-0.5-5.5,0.2l0.8-5.2c0.9-6-3.2-11.6-9.2-12.6c-6-0.9-11.6,3.2-12.6,9.2
				l-16.8,107.5c-0.9,6,3.2,11.6,9.2,12.6c6,0.9,11.6-3.2,12.6-9.2l13.6-86.9l1,0c0,0-0.7,23.6-0.7,32.4c0,8.8,4.8,6.6,4.8,6.6
				S1477.7,1006.8,1476,1004.5z"/>
			<g>
				<rect x="1344.3" y="964.3" class="st6" width="33" height="175"/>
				<path class="st11" d="M1383.4,1033.6h-44.6v-88.4c0-3.5,2.8-6.3,6.3-6.3h32.1c3.5,0,6.3,2.8,6.3,6.3V1033.6z"/>
			</g>
			<g>
				<polygon class="st16" points="1510.2,1068.8 1479.1,1329.5 1443.4,1330.3 1371.4,1332 1321.2,1068.8 				"/>
				<path class="st17" d="M1510.2,1068.8l-31.1,260.7l-35.7,0.8c-3.1-0.5-4.9-0.8-4.9-0.8l-2.3-260.7H1510.2z"/>
			</g>
		</g>
		<g>
			<path class="st16" d="M422.5,1507.1c0,0-13.4-48.3-77.8-65.7c-64.4-17.4,0-56.3,25.5-29.5c25.5,26.8,37.5,46.9,36.2,42.9
				c-1.3-4-24.1-57.7-59-81.8s-9.4-100.6,93.9,69.7c0,0-21.5-127.4,40.2-134.1c61.7-6.7-21.5,151.5-21.5,151.5s83.1-89.8,111.3-22.8
				c28.2,67-85.8,9.4-118,75.1L422.5,1507.1z"/>
			<path class="st17" d="M427.9,1500.4c0,0-7.7-27.9-44.9-37.9c-37.2-10.1,0-32.5,14.7-17c14.7,15.5,21.7,27.1,20.9,24.8
				c-0.8-2.3-13.9-33.3-34.1-47.2c-20.1-13.9-5.4-58.1,54.2,40.3c0,0-12.4-73.5,23.2-77.4c35.6-3.9-12.4,87.5-12.4,87.5
				s48-51.9,64.3-13.2c16.3,38.7-49.5,5.4-68.1,43.4L427.9,1500.4z"/>
			<path class="st3" d="M424.7,1582.2h29.8c11.2,0,20.3-9.1,20.3-20.3v-64.2h-70.4v64.2C404.4,1573.1,413.5,1582.2,424.7,1582.2z"/>
		</g>
	</g>
</g>
</svg>
