<?xml version="1.0" encoding="utf-8"?>
<!-- Generator: Adobe Illustrator 25.3.1, SVG Export Plug-In . SVG Version: 6.00 Build 0)  -->
<svg version="1.1" id="Layer_1" xmlns="http://www.w3.org/2000/svg" xmlns:xlink="http://www.w3.org/1999/xlink" x="0px" y="0px"
	 viewBox="0 0 2048 2048" style="enable-background:new 0 0 2048 2048;" xml:space="preserve">
<style type="text/css">
	.st0{fill:#BCCCFF;}
	.st1{fill:#8BA4DC;}
	.st2{fill:#293F6E;}
	.st3{fill:#FFFFFF;}
	.st4{fill:#7593C6;}
	.st5{fill:#A1D1AB;}
	.st6{fill:#FF896A;}
	.st7{fill:#1C233F;}
</style>
<g>
	<path class="st0" d="M1848.76,1267.23c-19.62,50.98-45.07,99.64-78.78,140.56c-6.45,7.84-13.16,15.33-20.08,22.51H290.49
		c-18.3-24.16-34.26-50.44-47.64-77.43c-101.41-204.42-82.22-474.89,46.76-659.19c128.97-184.3,360.37-271.87,563.94-213.42
		c104.88,30.11,203.58,95.36,311.92,95.08c94.63-0.26,183.57-50.93,277.73-61.4c158.07-17.6,316.88,87.89,393.27,242.48
		C1912.85,910.99,1911.15,1105.09,1848.76,1267.23z"/>
	<g>
		<path class="st1" d="M1143.08,1326.71H472.94c-33.74,0-61.1-27.36-61.1-61.1V862.25c0-33.74,27.36-61.1,61.1-61.1h670.13
			c33.74,0,61.1,27.35,61.1,61.1v403.36C1204.18,1299.35,1176.82,1326.71,1143.08,1326.71z"/>
		<path class="st2" d="M1126.54,1286.61H489.48c-19.72,0-35.7-15.98-35.7-35.7V876.95c0-19.72,15.98-35.7,35.7-35.7h637.06
			c19.72,0,35.7,15.98,35.7,35.7v373.96C1162.24,1270.62,1146.26,1286.61,1126.54,1286.61z"/>
		<rect x="528.9" y="915.73" class="st3" width="444.9" height="199.86"/>
		<rect x="528.9" y="1146.47" class="st0" width="304.14" height="22.06"/>
		<rect x="528.9" y="1198.06" class="st0" width="393.67" height="3.35"/>
		<rect x="528.9" y="1208.67" class="st0" width="447.24" height="3.35"/>
		<rect x="528.9" y="1220.19" class="st0" width="447.24" height="3.35"/>
		<rect x="528.9" y="1231.71" class="st0" width="417.92" height="3.35"/>
		<path class="st1" d="M919.23,1038.56l-0.01,0.07c-2.87-1.95-6.26-3.2-9.92-3.5c10.17-3.9,17.39-13.76,17.39-25.3
			c0-2.03-0.23-4.01-0.65-5.91h19.33l-45.71-40.9l-45.71,40.9h19.21c-0.42,1.9-0.65,3.88-0.65,5.91c0,11.54,7.22,21.4,17.39,25.3
			c-3.62,0.3-6.97,1.53-9.82,3.44l0,0c-0.69,0.46-1.35,0.96-1.97,1.49l-52.6,39.81l-54.57-41.31l-0.01,0.07
			c-2.87-1.95-6.26-3.2-9.92-3.5c10.17-3.9,17.39-13.76,17.39-25.3c0-3.14-0.54-6.15-1.52-8.96c3.04,0.09,6.08,0.34,9.09,0.78
			c3.95,0.57,7.94,1.43,11.9,0.97c3.97-0.47,8.03-2.59,9.51-6.3c1.71-4.29-0.72-9.43-4.61-11.9s-8.83-2.75-13.39-2.05
			c-5.35,0.82-10.4,2.84-15.4,4.97c-0.26-0.56-0.56-1.11-0.86-1.64c-3.62-6.35-7.39-12.61-11.33-18.76
			c-1.42-2.22-2.91-4.48-5.08-5.96c-2.17-1.48-5.21-2.01-7.42-0.57c-2.03,1.32-2.99,3.98-5.18,4.99c-3.35,1.54-7.09-1.64-10.76-1.35
			c-3.61,0.28-6.09,3.81-7.28,7.23c-1.54,4.43-1.81,9.19-2.07,13.87c-0.17,2.96-1.36,8.1-1.17,12.39
			c-3.78-0.31-7.78-0.83-11.32-0.03c-5.04,1.14-7.37,6.02-5.42,10.92c2.81,7.05,12.21,5.55,18.27,4.25
			c1.08,10.3,7.92,18.88,17.24,22.46c-3.62,0.3-6.97,1.53-9.82,3.44l0,0c-0.69,0.46-1.35,0.96-1.97,1.49l-52.6,39.81l-54.57-41.31
			l-0.01,0.07c-2.87-1.95-6.26-3.2-9.92-3.5c10.17-3.9,17.39-13.76,17.39-25.3c0-2.08-0.24-4.1-0.68-6.04c1.11,0,2.22-0.01,3.34,0
			c0.19-8.88-5.16-17.41-12.73-22.06c-7.57-4.65-17.05-5.66-25.74-3.81c-7,1.49-13.72,4.84-18.51,10.16
			c-3,3.34-8.72,12.29-6.44,17.12c0.96,2.04,3.7,2.42,6.69,2.21c-0.07,0.8-0.11,1.6-0.11,2.42c0,11.54,7.22,21.4,17.39,25.3
			c-3.62,0.3-6.97,1.53-9.82,3.44l0,0c-0.69,0.46-1.35,0.96-1.97,1.49l-52.6,39.81v27.54l46.66-28.41l2.21,36.05h50.44l2.22-36.12
			l46.77,28.48l46.66-28.41l2.21,36.05h50.44l2.22-36.12l46.77,28.48l46.66-28.41l2.21,36.05h50.44l2.22-36.12l46.77,28.48v-27.54
			L919.23,1038.56z"/>
		<rect x="656.82" y="1326.71" class="st4" width="302.37" height="103.59"/>
	</g>
	<g>
		<g>
			<g>
				<path class="st2" d="M1446.36,1228.44c-0.69,0-1.39-0.18-2.03-0.56c-1.88-1.12-2.49-3.55-1.36-5.43l256.74-429.11
					c1.12-1.88,3.55-2.49,5.43-1.36c1.88,1.12,2.49,3.55,1.36,5.43l-256.74,429.11C1449.02,1227.76,1447.7,1228.44,1446.36,1228.44z
					"/>
			</g>
			<g>
				<path class="st2" d="M1574.39,1430.3c-7.65,0-13.86-6.2-13.86-13.86v-134.51c0-7.65,6.2-13.86,13.86-13.86
					c7.65,0,13.86,6.2,13.86,13.86v134.51C1588.24,1424.1,1582.04,1430.3,1574.39,1430.3z"/>
			</g>
			<g>
				<path class="st2" d="M1574.66,1280.19c-48.36,0-96-13.06-138.58-38.53c-6.57-3.93-8.71-12.44-4.78-19.01
					c3.93-6.57,12.44-8.71,19.01-4.78c38.22,22.87,80.99,34.59,124.39,34.59c19.88,0,39.89-2.46,59.68-7.43
					c62.97-15.83,116.02-55.23,149.35-110.95c68.82-115.03,31.23-264.61-83.8-333.43c-6.57-3.93-8.71-12.44-4.78-19.01
					c3.93-6.57,12.44-8.71,19.01-4.78c62.08,37.14,105.98,96.23,123.61,166.39c17.63,70.15,6.89,142.98-30.26,205.06
					c-37.14,62.07-96.23,105.97-166.38,123.6C1619.11,1277.45,1596.81,1280.18,1574.66,1280.19z"/>
			</g>
			<g>
				<path class="st2" d="M1702.87,1430.3h-250.5c-7.65,0-13.86-6.2-13.86-13.86c0-7.65,6.2-13.86,13.86-13.86h250.5
					c7.65,0,13.86,6.2,13.86,13.86C1716.72,1424.1,1710.52,1430.3,1702.87,1430.3z"/>
			</g>
		</g>
		<g>
			<path class="st1" d="M1754.86,1116.79c-8.1,13.53-17.52,25.77-28.01,36.67c-63.93,66.4-167.37,82.52-249.84,33.17
				c-28.83-17.25-51.81-40.52-68.32-67.26c-16.65-26.97-26.7-57.45-29.49-88.8c-1.17-13.16-1.06-26.49,0.38-39.77
				c3.05-28.16,12.09-56.13,27.59-82.03c30.74-51.39,80.67-84.23,135.16-94.84c28.58-5.57,58.42-5.03,87.41,2.16
				c7.86,1.95,15.66,4.39,23.35,7.33c0.11,0.04,0.22,0.09,0.34,0.13l0,0c10.78,4.14,21.35,9.26,31.59,15.39
				c6.31,3.78,12.34,7.84,18.08,12.17c15.29,11.52,28.54,24.89,39.64,39.61C1790.95,954.61,1798.48,1043.88,1754.86,1116.79z"/>
			<path class="st3" d="M1754.86,1116.79c-8.1,13.53-17.52,25.77-28.01,36.67c-1.58-0.53-2.98-1.39-3.98-2.73
				c-5.51-7.38,7.34-16.9,5.18-25.85c-1.23-5.08-7.09-8.33-7.51-13.55c-0.43-5.52,5.46-9.62,6.33-15.09
				c0.81-5.11-3.15-9.98-7.88-12.08c-4.73-2.1-10.07-2.11-15.23-2.34c-12.55-0.54-25.03-2.51-37.13-5.86
				c-4.61-1.27-10.12-4.02-9.89-8.8c0.13-2.6,2.09-5.09,1.36-7.6c-0.86-2.95-4.62-3.65-7.63-4.26
				c-14.94-2.98-26.15-16.35-30.57-30.93c-4.42-14.58-3.15-30.23-0.96-45.3c1.58-10.81,3.68-21.76,8.86-31.38
				c5.19-9.62,13.92-17.86,24.62-20.02c12.71-2.57,28.2,2.9,37.48-6.16c4.77-4.66,6.39-12.19,11.97-15.84
				c4.34-2.84,9.91-2.58,15.07-3.09c9.88-0.99,18.7-5.39,25.82-11.87C1790.95,954.61,1798.48,1043.88,1754.86,1116.79z"/>
			<path class="st3" d="M1569.54,1094.55c-2.17,4.79,4.3,8.99,5.58,14.09c2.23,8.91-11.54,14.68-11.74,23.86
				c-0.13,5.94,5.59,10.34,11.16,12.42c18.95,7.07,40.45-1,56.62-13.15c3.32-2.49,6.61-5.28,8.4-9.02c2.2-4.59,1.85-10.04,0.34-14.9
				c-4.38-14.05-18.71-22.94-32.86-24.6C1597.79,1082.17,1573.62,1085.51,1569.54,1094.55z"/>
			<path class="st3" d="M1518.18,1141.95c-2.46-0.52-5.81-0.56-6.62,1.82c-0.47,1.39,0.28,2.87,0.38,4.33c0.2,2.84-2,5.18-3.79,7.4
				c-1.79,2.21-3.32,5.36-1.79,7.76c0.82,1.28,2.31,1.96,3.78,2.36c6.95,1.9,14.31-0.83,20.64-4.27c2.03-1.1,4.06-2.32,5.45-4.17
				c1.39-1.84,1.99-4.45,0.9-6.49C1533.11,1143.11,1526.09,1143.6,1518.18,1141.95z"/>
			<path class="st3" d="M1558.52,919.8c-10.74,1.3-22.2-0.33-31.94,4.37c-8.57,4.13-14.21,12.41-20.8,19.29
				c-12.51,13.05-29.58,21.63-47.51,23.88c-5.86,0.73-11.87,0.83-17.44,2.79c-7.49,2.63-13.43,8.36-19.09,13.93
				c-5.66,5.58-11.54,11.34-19,14.08c-7.46,2.75-16.99,1.59-21.67-4.83c-0.58-0.79-1.07-1.64-1.49-2.52
				c3.05-28.16,12.09-56.13,27.59-82.03c30.74-51.39,80.67-84.23,135.16-94.84c-0.61,6.23-4.29,12.15-8.42,17.06
				c-5.12,6.09-11.24,11.58-14.52,18.83c-0.59,1.32-1.1,2.73-0.96,4.16c0.3,3.33,3.65,5.37,6.63,6.89
				c12.28,6.23,24.57,12.47,36.85,18.72c9.04,4.59,19.37,11.16,19.4,21.3C1581.34,911.71,1569.27,918.51,1558.52,919.8z"/>
			<path class="st3" d="M1703.11,851.11c-0.5,0.25-1,0.49-1.5,0.71c-7.87,3.44-16.29,5.63-24.84,6.46
				c-3.95,0.38-8.13,0.44-11.67-1.35c-4.55-2.3-7.14-7.12-10.18-11.22c-4.25-5.72-9.84-10.42-16.21-13.61
				c-5.74-2.88-12.73-5.16-15.16-11.1c-0.45-1.09-0.68-2.42,0.01-3.38c0.69-0.97,2.02-1.17,3.21-1.28c0.99-0.09,1.98-0.17,2.98-0.24
				c7.86,1.95,15.66,4.39,23.35,7.33l-2.73,1.19c1.01-0.39,2.03-0.74,3.07-1.06l0,0c10.78,4.14,21.35,9.26,31.59,15.39
				C1691.34,842.71,1697.37,846.78,1703.11,851.11z"/>
			<path class="st5" d="M1506.84,999.91c0.33-1.55,0.66-3.1,0.99-4.65"/>
			<path class="st3" d="M1465.27,1005.44c-2.79,5.69,1.45,12.53,6.74,16c5.3,3.47,11.71,5.09,16.72,8.97
				c4.86,3.75,8.21,9.48,13.76,12.1c5.37,2.53,12.01,1.52,16.94-1.78s8.29-8.61,10.09-14.27c0.63-1.99,1.12-4.07,2.3-5.79
				c3.25-4.7,10.03-4.69,15.36-6.76c9.96-3.86,14.81-17.26,9.62-26.6c-1-1.81-2.35-3.48-4.11-4.56c-4.35-2.64-9.99-1.09-14.59,1.08
				c-4.6,2.17-9.27,4.97-14.35,4.63c-11.69-0.78-19.98-14.15-32.09-5.95c-3.65,2.47-6.17,6.82-9.64,9.6
				C1476.81,996.32,1468.38,999.09,1465.27,1005.44z"/>
			<path class="st3" d="M1421.93,1103.48c-1.76,2.72-2.72,5.89-4.44,8.63c-2.14,3.4-5.22,5.77-8.79,7.24
				c-16.65-26.97-26.7-57.45-29.49-88.8c7.46,0.31,14.6,3.25,21.49,6.23c7.36,3.17,14.91,6.49,22.93,6.79
				c1.2,0.05,2.44,0.01,3.51-0.53c1.5-0.75,2.36-2.33,3.14-3.82c3.79-7.28,7.58-14.55,11.36-21.83c0.45-0.86,0.95-1.77,1.81-2.22
				c1.26-0.65,2.79-0.07,4.06,0.58c12.47,6.39,21.33,19.35,22.74,33.3c0.3,2.98,0.23,6.2-1.44,8.68c-2,2.98-5.72,4.16-8.97,5.68
				c-3.25,1.53-6.61,4.25-6.42,7.83c0.23,4.57,6.18,8.12,4.68,12.44c-0.59,1.73-2.26,2.84-3.88,3.68
				C1443.34,1093.03,1428.59,1093.21,1421.93,1103.48z"/>
		</g>
	</g>
	<g>
		<g>
			<path class="st6" d="M1378.41,1181.12c0,0-323.12,0-323.12,0c-7.11-46.57-14.22-93.13-21.33-139.7
				c-1.58-12.67-3.86-25.3-5.79-37.92c-1.89-12.38-6.04-24.15-4.41-36.84c2.09-16.27,12.05-30.92,25.21-40.71
				c22.75-16.93,49.17-16.64,76.07-18.79c29.29-2.34,58.6-4.69,87.98-5.06c34.49-0.44,68.96,1.85,103.27,5.29
				c13.54,1.36,26.27,0.63,39.18,5.36c12.67,4.64,24.61,12.02,32.64,23.07c7.72,10.62,11.28,23.69,13.41,36.64
				c8.03,48.86-6.66,100.92-14.03,149.22C1384.46,1141.49,1381.43,1161.31,1378.41,1181.12z"/>
			<path class="st3" d="M1379.92,1182.88h-326.14l-21.56-141.19c-1.06-8.47-2.44-17.02-3.78-25.29c-0.67-4.14-1.36-8.42-2.01-12.63
				c-0.53-3.49-1.26-7-1.97-10.4c-1.79-8.64-3.65-17.57-2.45-26.93c2.04-15.9,11.48-31.17,25.91-41.9
				c20.4-15.18,43.16-16.76,67.24-18.42c3.19-0.22,6.48-0.45,9.74-0.71c28.83-2.31,58.64-4.69,88.1-5.07
				c30.63-0.38,63.51,1.3,103.47,5.3c3.64,0.36,7.29,0.58,10.81,0.79c9.85,0.58,19.16,1.14,28.8,4.67
				c14.69,5.39,25.94,13.35,33.46,23.69c8.78,12.07,12.04,27.12,13.72,37.39c6.23,37.91-1.08,77.59-8.15,115.95
				c-2.06,11.17-4.19,22.72-5.88,33.81L1379.92,1182.88z M1056.8,1179.36h320.1l8.85-57.95c1.7-11.14,3.83-22.72,5.9-33.92
				c7.01-38.07,14.27-77.44,8.14-114.75c-1.63-9.92-4.76-24.42-13.1-35.89c-7.1-9.76-17.8-17.31-31.82-22.45
				c-9.15-3.36-18.21-3.89-27.79-4.46c-3.56-0.21-7.24-0.43-10.95-0.8c-39.82-3.99-72.58-5.67-103.07-5.28
				c-29.34,0.37-59.09,2.75-87.86,5.06c-3.27,0.26-6.58,0.49-9.77,0.71c-23.56,1.63-45.81,3.17-65.39,17.73
				c-13.66,10.16-22.6,24.57-24.52,39.52c-1.13,8.77,0.59,17.03,2.4,25.77c0.72,3.44,1.45,7,2,10.58c0.64,4.2,1.33,8.47,2,12.6
				c1.34,8.3,2.73,16.89,3.8,25.37L1056.8,1179.36z"/>
		</g>
		<g>
			<path class="st6" d="M1345.26,1306.7h-256.82c-18.31,0-33.15-14.84-33.15-33.15v-53.44h323.12v53.44
				C1378.41,1291.86,1363.56,1306.7,1345.26,1306.7z"/>
			<path class="st3" d="M1345.25,1308.46h-256.82c-19.25,0-34.91-15.66-34.91-34.91v-55.2h326.64v55.2
				C1380.17,1292.8,1364.5,1308.46,1345.25,1308.46z M1057.05,1221.86v51.68c0,17.31,14.08,31.39,31.39,31.39h256.82
				c17.31,0,31.39-14.08,31.39-31.39v-51.68H1057.05z"/>
		</g>
		<g>
			<path class="st6" d="M1353.82,1241.36h-273.94c-23.91,0-43.3-19.38-43.3-43.3v0c0-23.91,19.38-43.3,43.3-43.3h273.94
				c23.91,0,43.3,19.38,43.3,43.3v0C1397.11,1221.98,1377.73,1241.36,1353.82,1241.36z"/>
			<path class="st3" d="M1353.82,1243.12h-273.94c-24.84,0-45.06-20.21-45.06-45.06s20.21-45.06,45.06-45.06h273.94
				c24.84,0,45.06,20.21,45.06,45.06S1378.66,1243.12,1353.82,1243.12z M1079.88,1156.53c-22.9,0-41.54,18.63-41.54,41.54
				s18.63,41.54,41.54,41.54h273.94c22.9,0,41.54-18.63,41.54-41.54s-18.63-41.54-41.54-41.54H1079.88z"/>
		</g>
		<polygon class="st7" points="1129.43,1430.26 1112.03,1430.3 1093.86,1309.57 1119.71,1309.5 		"/>
		<polygon class="st7" points="1302.53,1430.26 1319.93,1430.3 1338.1,1309.57 1312.25,1309.5 		"/>
	</g>
	<g>
		<g>
			<path class="st6" d="M202.73,1309.22c10.62-9.46,24.31-14.67,38.56-14.67h333.16v-19.65H241.29c-19.07,0-37.41,6.98-51.61,19.63
				c-1.16,1.02-2.27,2.07-3.32,3.13c-14.67,14.67-22.76,34.18-22.76,54.94c0,22.18,9.51,43.33,26.06,58.05
				c14.22,12.67,32.56,19.65,51.63,19.65h333.16v-19.65H241.29c-14.24,0-27.94-5.21-38.57-14.68
				c-12.38-10.99-19.48-26.81-19.48-43.37c0-15.51,6.04-30.09,17-41.05C201.02,1310.78,201.85,1310,202.73,1309.22z"/>
			<path class="st3" d="M200.25,1311.55c-10.96,10.96-17,25.54-17,41.05c0,16.57,7.1,32.38,19.48,43.37
				c10.63,9.47,24.32,14.68,38.57,14.68h323.17v-116.11H241.29c-14.25,0-27.94,5.21-38.56,14.67
				C201.85,1310,201.02,1310.78,200.25,1311.55z"/>
		</g>
		<g>
			<path class="st6" d="M187.6,1171.27c9.31-8.3,21.33-12.87,33.83-12.87h292.29v-17.24H221.43c-16.73,0-32.82,6.13-45.28,17.22
				c-1.01,0.89-2,1.82-2.92,2.74c-12.87,12.87-19.97,29.99-19.97,48.2c0,19.46,8.34,38.02,22.86,50.93
				c12.48,11.12,28.57,17.24,45.3,17.24h292.29v-17.24H221.43c-12.5,0-24.51-4.57-33.84-12.88c-10.87-9.65-17.09-23.52-17.09-38.05
				c0-13.6,5.3-26.4,14.92-36.02C186.1,1172.64,186.82,1171.95,187.6,1171.27z"/>
			<path class="st3" d="M185.42,1173.31c-9.62,9.62-14.92,22.41-14.92,36.01c0,14.53,6.23,28.4,17.09,38.05
				c9.32,8.31,21.34,12.88,33.84,12.88h283.53V1158.4H221.43c-12.5,0-24.51,4.57-33.83,12.87
				C186.82,1171.95,186.1,1172.64,185.42,1173.31z"/>
		</g>
		<g>
			<path class="st6" d="M498.37,1050.15c8.4,8.4,13.03,19.58,13.03,31.46c0,12.69-5.44,24.81-14.93,33.24
				c-8.14,7.26-18.64,11.25-29.56,11.25H211.58v15.06h255.34c14.62,0,28.67-5.35,39.57-15.06c12.69-11.28,19.97-27.5,19.97-44.49
				c0-15.91-6.2-30.86-17.44-42.11c-0.8-0.81-1.66-1.62-2.55-2.4c-10.88-9.69-24.94-15.05-39.55-15.05H211.58v15.06h255.34
				c10.92,0,21.42,4,29.55,11.25C497.15,1048.96,497.78,1049.56,498.37,1050.15z"/>
			<path class="st3" d="M498.37,1050.15c8.4,8.4,13.03,19.58,13.03,31.46c0,12.7-5.44,24.81-14.93,33.24
				c-8.15,7.26-18.64,11.25-29.56,11.25H219.23v-88.99h247.68c10.92,0,21.41,3.99,29.55,11.24
				C497.15,1048.96,497.78,1049.56,498.37,1050.15z"/>
		</g>
	</g>
	<path class="st3" d="M910.01,701.3c-22.6,0.66-45.21,1.24-67.83,1.73c-44.34,0.96-88.7,1.58-133.06,1.83
		c-42.23,0.24-85.16,1.39-127.12-1.91c-1.78-0.14-3.59-0.3-5.25-0.78c-4.23-1.23-6.79-4.55-6.52-7.73c0.27-3.18,3.07-6.11,6.85-7.91
		c9.63-4.6,26.43-4.17,37.63-5.23c-4.95-5.05,0.66-11.88,7.06-16.07c16.2-10.62,38.86-16.31,61.09-15.36
		c-1.97-10.95,6.96-21.47,17.64-29.63c18.84-14.4,44.34-24.52,71.76-28.5c14.12-2.05,29.01-2.47,42.81,0.46
		c13.79,2.93,26.37,9.53,32.15,18.71c6.72-4.83,17.56-5.7,27.08-4.53c23.62,2.9,42.49,16.37,51.59,31.79
		c9.1,15.43,9.82,32.6,8.33,49.24c-0.26,2.9-0.65,5.94-2.94,8.37C926.96,700.37,917.87,701.07,910.01,701.3z"/>
	<path class="st3" d="M1233.35,758.34c54.72,1.76,109.45,3.52,164.17,5.28c22.01,0.71,44.04,1.42,66.05,0.75
		c11.29-0.34,22.88-1.12,33.11-5.91c-10.88-7.7-25.13-8.63-38.42-7.66c-13.29,0.97-26.63,3.56-39.85,1.88
		c13.13-11.61,16.85-32.55,8.52-47.96c-4.36-8.08-11.48-14.41-19.33-19.17c-23.19-14.07-53.97-14.65-77.67-1.44
		c-4.91,2.73-10.51,6.12-15.74,4.08c-3.91-1.53-6.09-5.6-8.17-9.25c-4.26-7.49-9.51-14.55-16.3-19.86
		c-19.11-14.97-46.64-13.44-69.55-5.45c-17.81,6.21-34.71,16.1-46.72,30.64c-12.02,14.53-18.67,34.07-15.3,52.62
		c1.12,6.18,3.4,12.29,7.55,17.01c8.57,9.74,22.83,11.5,35.76,12.61c16.07,1.39,32.77,2.69,47.86-3.02"/>
	<g>
		<path class="st3" d="M1238.25,1003.08c-7.94-10.25-19.92-3.18-26.03,5.42c-5.59,7.87-10.12,16.68-13.38,26.02
			c-2.42,6.93-4.58,17.19-10.4,21.75c-5.83,4.56-18.22,3.25-25.15,3.15c-11.14-0.15-22.16-1.79-33.07-4.07
			c0.7,4.74-0.54,13.06,3.63,16.26c1.58,1.21,3.56,1.75,5.48,2.25c16.59,4.28,33.44,7.6,50.41,9.93c5.16,0.71,10.56,1.31,15.48-0.4
			c8.68-3,13.45-11.86,17-19.66c4.71-10.34,9.88-20.45,14.33-30.94C1240.6,1023.24,1244.38,1011,1238.25,1003.08z"/>
		<path class="st1" d="M1226.34,1054.91c3.48-7.33,7.03-14.63,10.21-22.12c4.05-9.55,7.82-21.79,1.69-29.71
			c-7.94-10.25-19.92-3.18-26.03,5.42c-5.59,7.87-10.12,16.68-13.38,26.02c-0.62,1.78-1.23,3.78-1.88,5.85
			C1206.83,1045.05,1216.61,1049.94,1226.34,1054.91z"/>
		<path class="st7" d="M1251.5,1135.05c-41.16-11.39-93.95-2.55-134.67,6.95c-9.59,2.24-19.37,4.96-27.16,10.97
			c-5.27,4.06-9.36,9.42-13.39,14.72c-20.64,27.15-41.53,54.79-57.01,84.98c-0.41,0.81-0.05,1.8,0.78,2.15c0.01,0,0.01,0,0.02,0.01
			c3.96,1.65,8.03,3.16,12.23,4.1l0.19,0.03c0.32,0.04,1.53,0.24,1.89,0.28c0.33,0.03,0.65,0.06,0.98,0.09
			c0.41,0.03,0.82-0.11,1.13-0.38c13.96-12.13,28.2-23.94,42.72-35.4c8.69-6.86,17.59-13.67,27.71-18.17
			c21.58-9.61,46.21-7.84,69.82-8.49c19.19-0.52,38.34-2.77,57.14-6.69c15.57-3.25,35.39-9.75,40.11-27.07
			C1278.33,1147.15,1265.15,1138.83,1251.5,1135.05z"/>
		<path class="st2" d="M1298.67,1138.27c-4.8-18.86-22.07-11.13-35.73-5.86c-35.4,13.66-66.48,36.24-96.93,58.42
			c-14.12,10.28-29.61,23.03-30.19,40.48c-0.22,6.46,1.73,12.79,3.78,18.92c11.5,34.38,26.87,67.46,45.7,98.44
			c0.4,0.66,1.22,0.92,1.93,0.63c3.47-1.43,6.97-2.83,10.45-4.24c0.7-0.28,1.09-1.02,0.93-1.76c-5.25-25.1-8.48-50.62-9.6-76.24
			c-0.3-6.84-0.35-14.09,3.07-20.03c3.44-5.96,9.79-9.54,15.83-12.83c18.7-10.18,37.4-20.37,56.1-30.55
			c8.12-4.42,16.41-8.97,22.59-15.85C1297.25,1175.98,1302.64,1153.87,1298.67,1138.27z"/>
		<path class="st1" d="M1299.95,992.69c9.76,3.04,19.08,8.77,24.36,17.52c7.85,13,5.37,29.78-0.04,43.97
			c-5.41,14.19-13.49,27.47-16.55,42.34c-1.66,8.08-1.82,16.56-4.94,24.2c-5.57,13.61-19.84,22.09-34.32,24.65
			c-14.48,2.56-29.33,0.16-43.8-2.4c-3.56-0.63-7.39-1.41-9.86-4.04c-2.69-2.87-3.07-7.14-3.28-11.06
			c-0.93-17.45-1.4-34.92-1.39-52.39c0.01-17.7-3.4-62.28,12.32-74.23c7.73-5.87,25.62-7.81,35.01-9.58
			C1271.52,989.02,1286.14,988.39,1299.95,992.69z"/>
		<path class="st3" d="M1228.17,937.21c-1.32,8.87,1.15,17.81,2.02,26.74c0.33,3.32,0.44,6.69,1.17,9.95
			c2.13,9.46,9.9,17.42,19.31,19.78c9.41,2.36,20.01-0.98,26.37-8.3c4.07-4.69,6.39-10.7,10.47-15.38c2.64-3.03,5.96-5.43,8.37-8.65
			c2.4-3.22,3.76-7.73,1.82-11.24c-2.08-3.77-6.91-4.87-11.18-5.43c0.24-10.2-5.5-20.33-14.38-25.37
			C1256.77,910.6,1230.99,918.26,1228.17,937.21z"/>
		<path class="st3" d="M1275.75,1000.48c4.79-4.76,6.64-11.98,5.86-18.69c-0.39-3.33-1.47-6.75-3.91-9.06
			c-10.09-9.53-25.6,5.98-27.66,15.87C1246.95,1003.54,1266.1,1010.07,1275.75,1000.48z"/>
		<path class="st3" d="M1269.78,1046.7c-0.54,1.29-1.07,2.58-1.57,3.89c-3.54,9.22-6.68,22.88-15.32,28.91
			c-8.65,6.04-27.1,4.19-37.42,4c-16.71-0.29-33.23-2.59-49.62-5.75c-0.59,3.9-4.22,11.44-1.57,14.79c1.4,1.77,3.57,2.72,5.66,3.56
			c27.88,11.33,57.9,16.56,87.9,19.07c4.55,0.38,9.15,0.7,13.66-0.02c8.77-1.41,16.53-6.7,22.53-13.24
			c8.56-9.34,14.99-20.87,20.68-32.62C1299.31,1062.58,1283.87,1055.74,1269.78,1046.7z"/>
		<g>
			<path class="st3" d="M1078.58,1039.18c6.69-7.04,16.81-9.65,26.49-10.46c9.68-0.81,19.51-0.15,29.03-2.1
				c2.53-0.52,5.06-1.23,7.65-1.2c2.59,0.03,5.32,0.92,6.86,3c0.27,0.37,0.51,0.82,0.42,1.28c-0.13,0.6-0.76,0.92-1.33,1.16
				c-11.27,4.75-22.58,9.51-34.34,12.87c-10.38,2.96-21.04,4.8-31.68,6.64c-3.15,0.54-6.52,1.07-9.44-0.22
				c-2.24-0.98-3.91-2.9-5.47-4.78c-3.16-3.8-19.92-20.52-7.57-21.67C1067.7,1022.91,1076.53,1031.58,1078.58,1039.18z"/>
			
				<rect x="1087.29" y="1033.72" transform="matrix(0.9682 -0.2502 0.2502 0.9682 -234.6289 316.1893)" class="st2" width="78.25" height="94.57"/>
			<polygon class="st2" points="1100.37,1136.58 1074.27,1113.27 1050.61,1021.7 1076.71,1045.01 			"/>
		</g>
		<path class="st3" d="M1163.55,1064.83c-0.02,2.16,0.05,4.31,0.23,6.46l-19.51-12c-1.16-0.72-2.65-0.83-3.83-0.14
			c-1.71,1.01-1.44,2.75-0.92,4.19c0.96,2.64,2.72,4.98,4.98,6.65c-3.2-0.07-6.05-2.3-9.42-1.62c-1.08,0.22-2.07,0.85-2.6,1.81
			c-1.22,2.21,0.51,4.39,2.41,5.55c1.63,0.99,3.53,1.63,4.84,3.02c-2.02-0.45-4.15-0.91-6.09,0.13c-1.14,0.61-1.92,1.84-1.77,3.13
			c0.43,3.72,6.95,2.81,8.92,6.02c-2.08-0.28-3.35,2.66-2.39,4.53s3.08,2.78,5.05,3.52c6.85,2.59,13.92,5.01,21.42,4.08
			c3.94-0.49,7.68-2.06,10.6-4.75c10.36-9.53,0.93-22.08-6.34-32.31C1167.42,1060.68,1163.58,1061.86,1163.55,1064.83z"/>
		<path class="st3" d="M1199.33,1333.57c1.07,0.49,1.78,1.61,2.4,2.7c2.7,4.75,4.7,10.01,5.89,15.5c0.27,1.24,0.49,2.6,0.03,3.78
			c-0.47,1.19-1.52,1.93-2.52,2.59c-8.89,5.93-17.77,11.86-26.66,17.79c-8.66,5.78-17.52,11.65-27.34,14.05
			c-2.58,0.63-5.31,1.01-7.83,0.18c-2.53-0.83-4.81-3.1-5.14-6.04c11.92-7.81,24.45-16.05,32.76-28.79
			c3.48-5.33,5.41-12.1,10.78-15.39C1185.19,1337.79,1195.9,1332,1199.33,1333.57z"/>
		<path class="st3" d="M1038.88,1259.62c0.01,1.17-0.69,2.3-1.41,3.32c-3.14,4.47-7.03,8.53-11.48,11.96
			c-1.01,0.78-2.14,1.56-3.4,1.64c-1.27,0.09-2.39-0.55-3.42-1.17c-9.16-5.49-18.33-10.98-27.49-16.47
			c-8.93-5.35-18.03-10.84-24.4-18.68c-1.68-2.06-3.18-4.36-3.52-7s0.74-5.67,3.25-7.23c12.16,7.43,24.98,15.21,40.05,17.27
			c6.31,0.86,13.25-0.29,18.53,3.15C1029.01,1248.66,1038.83,1255.85,1038.88,1259.62z"/>
		<path class="st7" d="M1278.2,907.51c-8.63-6.92-20.88-9.5-31.21-5.54c-2.6,1-5.05,2.37-7.72,3.16c-3.07,0.9-6.32,0.99-9.42,1.8
			c-3.09,0.81-6.22,2.59-7.36,5.58c-0.57,1.49-0.7,3.34-2.02,4.24c-0.78,0.54-1.78,0.58-2.72,0.73c-5.31,0.83-9.46,5.53-10.76,10.74
			c-1.3,5.21-0.16,10.77,1.98,15.69c2.25,5.18,6.26,10.31,11.87,10.99c4.52,0.55,8.96-2.05,11.84-5.58
			c2.88-3.53,4.48-7.9,6.03-12.18c4.71,1.92,9.97-0.23,14.77-1.9c4.8-1.67,10.8-2.63,14.42,0.94c3.17,3.12,2.99,8.25,4.99,12.22
			c2.28,4.53,7.44,7.68,7.96,12.72c0.86-2.83,0.56-5.87,0.98-8.8c0.42-2.93,1.91-6.07,4.74-6.92c2.64-0.8,5.57,0.82,6.96,3.2
			c3.04,5.2,0.67,11.49-2.73,15.79c-0.94,1.19-1.99,2.28-2.96,3.43c-2.84,3.35-5.04,7.25-6.45,11.42
			c8.53-0.26,16.24-7.66,16.86-16.17c0.07-1.03,0.06-2.08,0.33-3.08c0.28-1.05,0.87-2,1.39-2.96c3.36-6.27,3.6-14.71-1.17-19.99
			c-1.58-1.74-3.6-3.05-5.12-4.84c-3.16-3.7-3.56-8.82-5.85-12.98C1285.39,914.75,1282.19,910.71,1278.2,907.51z"/>
		<path class="st3" d="M1285.44,1020.17c0.37-0.72,0.74-1.49,0.63-2.29c-0.11-0.8-0.94-1.54-1.69-1.24
			c-1.11,0.45-2.86,5.51-3.48,6.66c-1.27,2.33-2.58,4.65-3.93,6.93c-1.31,2.22-2.66,4.42-4.04,6.6c-0.92,1.45-3.02,3.61-3.12,5.28
			c3.51,0.43,6.06-5.19,7.48-7.49C1280.19,1029.92,1282.91,1025.09,1285.44,1020.17z"/>
		<path class="st3" d="M1214.66,1022.25c0.13-0.3,0.3-0.65,0.63-0.71c0.34-0.07,0.66,0.22,0.76,0.55c0.09,0.33,0.02,0.68-0.06,1.02
			c-0.96,4-2.25,7.92-3.12,11.95c-0.32,1.46-0.71,8.93-2.02,8.37c-2.24-0.96-0.25-7.89,0.04-9.26
			C1211.77,1030.09,1213.03,1026.1,1214.66,1022.25z"/>
		<path class="st3" d="M1174.59,1227.32c-2.47,1.66-4.95,3.39-6.84,5.69c-2.72,3.32-3.99,7.62-4.52,11.89
			c-1.25,10.04,1.25,20.16,4.38,29.78c4.6,14.18,10.58,27.87,16.56,41.53c2.25-1.08,1.35-4.44,0.17-6.64
			c-8.27-15.48-13.85-32.4-16.43-49.76c-0.82-5.5-1.31-11.26,0.49-16.52c2.77-8.11,10.35-13.45,17.56-18.09
			c26.85-17.25,54.93-32.59,81.18-50.75c2.68-1.85,8.16-5.33,8.9-8.8c0.97-4.51-2.23-2.53-4.92-0.68
			c-7.59,5.26-14.57,11.41-22.26,16.59c-15.55,10.48-31.89,19.71-47.99,29.3C1191.99,1216.16,1183.17,1221.55,1174.59,1227.32z"/>
	</g>
	<path class="st1" d="M1548.04,621.06c-1.48-1.01-3.4-1.02-5.17-1.25c-4.63-0.61-8.88-2.96-13.49-3.69
		c-6.95-1.09-13.89,1.58-20.31,4.44c-6.08,2.71-12,5.72-17.83,8.9c-8.82,4.81-17.43,9.99-26.09,15.09l-108.61-49.8l6.04,12.53
		l73.14,53.59c-5.8,2.98-11.67,5.84-17.63,8.51c-2.1,0.94-12.52,5.69-22.8,11.4l-8.17-15.76l-6.35,2.6l1.22,21.16l-40.39-18.52
		l2.48,5.14l29.67,21.74c-0.61,1.24-0.72,2.37-0.22,3.36c1.24,2.42,5.16,3.75,8.42,4.12l13.02,19.44l4.26,1.2l-4.89-23.28
		c2.75-1.1,5.45-2.3,7.92-3.16c11.69-4.06,23.35-8.22,34.98-12.48c6.13-2.25,12.25-4.53,18.36-6.83l31.11,46.45l10.39,2.92
		l-12.7-60.46c5.79-2.28,11.58-4.58,17.35-6.91c5.34-2.16,10.68-4.33,16-6.53c11.99-4.95,22.37-11.45,29.78-22.42
		c1.2-1.77,2.32-3.67,2.62-5.79C1550.48,624.64,1549.81,622.26,1548.04,621.06z"/>
	<path class="st1" d="M1690.78,1118.14c2.88,0.18-1.21,5.32-2.03,2.55"/>
	<path class="st1" d="M1473.38,1346.15c-31.87,18.22-55.27,51.28-90.52,61.55c9.14,2.01,18.47-1.65,27.1-5.27
		c9.44-3.96,18.86-7.97,28.27-12.01c13.49-5.8,27.09-11.77,38.82-20.62c20.01-15.09,33.11-37.37,45.69-59.05
		c-28.2,19.25-65.34,20.29-95.05,37.11c-20.13,11.4-37.18,30.72-44.57,52.79c13.73-8.69,26.21-22.79,40.91-31.91
		C1439.43,1359.16,1456.05,1351.53,1473.38,1346.15z"/>
	<path class="st1" d="M1403.59,1277.58c-4.62,24.12,1.98,50.39-8.15,72.76c5-3.77,7.2-10.1,9.12-16.05
		c2.1-6.52,4.17-13.05,6.21-19.58c2.93-9.38,5.82-18.88,6.43-28.69c1.05-16.73-4.56-33.08-10.1-48.91
		c-2.5,22.7-18.15,42.01-22.54,64.42c-2.98,15.18-0.59,32.25,7.4,45.61c1.56-10.76-0.16-23.23,1.6-34.67
		C1395.41,1300.48,1398.77,1288.72,1403.59,1277.58z"/>
	<path class="st1" d="M367.79,719.44c23.24,13.29,40.3,37.39,66,44.87c-6.66,1.47-13.47-1.2-19.76-3.84
		c-6.88-2.89-13.75-5.81-20.61-8.76c-9.84-4.23-19.75-8.58-28.3-15.03c-14.59-11-24.14-27.25-33.31-43.05
		c20.56,14.03,47.64,14.79,69.3,27.05c14.68,8.31,27.1,22.39,32.49,38.49c-10.01-6.34-19.11-16.62-29.83-23.27
		C392.54,728.93,380.42,723.36,367.79,719.44z"/>
	<path class="st1" d="M418.67,669.45c3.37,17.58-1.44,36.74,5.94,53.05c-3.65-2.75-5.25-7.36-6.65-11.7
		c-1.53-4.75-3.04-9.51-4.53-14.28c-2.13-6.84-4.24-13.77-4.69-20.92c-0.76-12.2,3.33-24.12,7.36-35.66
		c1.82,16.55,13.23,30.63,16.43,46.97c2.17,11.07,0.43,23.51-5.4,33.26c-1.14-7.84,0.12-16.94-1.17-25.28
		C424.63,686.15,422.18,677.57,418.67,669.45z"/>
</g>
</svg>
