<?xml version="1.0" encoding="utf-8"?>
<!-- Generator: Adobe Illustrator 25.3.1, SVG Export Plug-In . SVG Version: 6.00 Build 0)  -->
<svg version="1.1" id="Layer_1" xmlns="http://www.w3.org/2000/svg" xmlns:xlink="http://www.w3.org/1999/xlink" x="0px" y="0px"
	 viewBox="0 0 2048 2048" style="enable-background:new 0 0 2048 2048;" xml:space="preserve">
<style type="text/css">
	.st0{fill:#FFE7E1;}
	.st1{opacity:0.8;}
	.st2{fill:#56A7D4;}
	.st3{fill:#EB5E66;}
	.st4{fill:#354E6C;}
	.st5{fill:#61A06E;}
	.st6{opacity:0.9;}
	.st7{fill:#5AAECC;}
	.st8{fill:#71BFE2;}
	.st9{fill:#FFFFFF;}
	.st10{fill:#58A5BF;}
	.st11{fill:#EFBC73;}
	.st12{fill:#D39235;}
	.st13{fill:#EFA937;}
	.st14{fill:#FFE4C0;}
	.st15{fill:#397A96;}
</style>
<path class="st0" d="M893.12,1527.24c-90.43,65.33-202.7,127.46-309.36,93.19c-37.43-12.03-70.21-35.2-99.18-61.42
	c-96.97-87.77-157.06-221.9-130.85-348.9c5.17-25.04,13.54-49.75,13.66-75.3c0.26-57.82-40.61-106.61-66.6-158.48
	C255.65,886.26,256,773.82,308,687.4s156.34-141.61,257.77-129.92c59.62,6.87,115.57,34.8,175.5,38.2
	c83.15,4.71,161.29-38.24,227.93-87.36s128.72-106.53,205.26-138.81c97.66-41.18,217.36-34.77,303.86,25.91
	c86.5,60.68,131.81,177.07,98.53,276.29c-12.43,37.05-34.82,76.39-19.72,112.47c15.01,35.85,50.18,62.82,82.69,81.74
	c85.15,49.56,148.79,102.49,184.33,197.74c29.15,78.1,34.91,158.01-5.03,233.62c-39.19,74.19-109.43,137.09-185.49,171.58
	c-98.35,44.59-215.51,45.94-315.61,5.82c-45.03-18.05-80.15-51.11-123.49-70.85c-43.02-19.59-91.55-1.91-132.21,16.11
	C1000.92,1447.15,947.07,1488.26,893.12,1527.24z"/>
<g>
	<g class="st1">
		<path class="st2" d="M994.72,892.06l73.14-85.36c0.64,0.59,1.27,1.2,1.88,1.82c0.4,0.41,0.81,0.82,1.2,1.24l-72.54,84.66
			C997.15,893.65,995.92,892.86,994.72,892.06z"/>
		<path class="st2" d="M981.01,881.41l73.06-85.27c1.25,0.77,2.46,1.57,3.65,2.39l-73.45,85.72
			C983.16,883.33,982.07,882.38,981.01,881.41z"/>
		<path class="st2" d="M969.11,868.66l68.98-80.51c1.42,0.56,2.82,1.14,4.2,1.76l-70.39,82.15
			C970.93,870.94,970,869.81,969.11,868.66z"/>
		<path class="st3" d="M959.41,853.34l60.48-70.58c1.61,0.33,3.2,0.7,4.77,1.09l-63.08,73.61
			C960.81,856.1,960.09,854.73,959.41,853.34z"/>
		<path class="st2" d="M952.88,834.31l46.37-54.11c1.8,0.08,3.6,0.21,5.4,0.36l-50.54,58.98c-0.46-1.7-0.87-3.41-1.21-5.12
			C952.89,834.38,952.89,834.35,952.88,834.31z"/>
		<path class="st2" d="M951.72,809.03l24.34-28.4c2.01-0.16,4.02-0.29,6.04-0.39l-30.72,35.85
			C951.42,813.73,951.54,811.38,951.72,809.03z"/>
		<path class="st4" d="M940.64,795.31l27.27-31.83c-0.32,2.66-0.69,5.31-1.1,7.95l-19.34,22.57
			C945.18,794.43,942.9,794.86,940.64,795.31z"/>
		<path class="st2" d="M913.48,800.38l54.76-63.91c0.24,2.01,0.41,4.02,0.53,6.04l-48.67,56.8
			C917.9,799.7,915.7,800.06,913.48,800.38z"/>
		<path class="st2" d="M889.35,801.9l74.04-86.4c0.56,1.6,1.08,3.22,1.55,4.85l-69.95,81.63c-1.6,0.02-3.21,0.01-4.82-0.04
			C889.9,801.92,889.62,801.9,889.35,801.9z"/>
		<path class="st2" d="M869.1,798.88l86.32-100.74c0.77,1.34,1.52,2.69,2.23,4.06l-83.79,97.78
			C872.26,799.66,870.67,799.29,869.1,798.88z"/>
		<path class="st2" d="M851.64,792.61l93.45-109.06c0.95,1.11,1.88,2.25,2.78,3.41l-92.09,107.48
			C854.39,793.86,853.01,793.26,851.64,792.61z"/>
		<path class="st2" d="M836.38,783.78l96.27-112.35c1.12,0.91,2.22,1.85,3.3,2.81l-95.95,111.97
			C838.78,785.43,837.58,784.62,836.38,783.78z"/>
		<path class="st3" d="M823.15,772.58l95.04-110.92c1.28,0.71,2.55,1.45,3.8,2.22L826.27,775.6c-0.97-0.9-1.92-1.81-2.85-2.75
			c-0.07-0.07-0.14-0.13-0.2-0.21C823.2,772.63,823.17,772.61,823.15,772.58z"/>
		<path class="st3" d="M811.98,758.97l89.66-104.63c1.46,0.49,2.91,1.02,4.35,1.59l-91.42,106.69
			C813.68,761.42,812.82,760.21,811.98,758.97z"/>
		<path class="st2" d="M803.03,742.78l79.56-92.86c1.69,0.22,3.36,0.48,5.03,0.78l-82.59,96.39
			C804.34,745.67,803.67,744.23,803.03,742.78z"/>
		<path class="st2" d="M796.82,723.39l63.26-73.83c2-0.17,4.01-0.3,6.02-0.37l-68.04,79.4C797.6,726.87,797.18,725.14,796.82,723.39
			z"/>
		<path class="st2" d="M794.77,699.13l38.99-45.5c2.27-0.46,4.55-0.9,6.84-1.32l-45.87,53.53c-0.01-0.16-0.01-0.33-0.01-0.49
			C794.67,703.28,794.7,701.2,794.77,699.13z"/>
		<path class="st4" d="M797.37,669.46l13.15-15.35c-0.2,1.36-0.41,2.73-0.63,4.09c1.11-0.19,2.22-0.38,3.33-0.57l-15.86,18.51
			c0.38-2.29,0.77-4.56,1.17-6.82C798.14,669.37,797.76,669.42,797.37,669.46z"/>
		<path class="st2" d="M773.13,671.1l38.82-45.31c0.17,2.11,0.26,4.22,0.28,6.33l-33.29,38.85
			C777.01,671.05,775.08,671.09,773.13,671.1z"/>
		<path class="st2" d="M751.51,669.7l55.72-65.03c0.6,1.57,1.15,3.15,1.64,4.74l-52.19,60.91
			C754.96,670.15,753.24,669.94,751.51,669.7z"/>
		<path class="st3" d="M732.38,665.38l66.23-77.29c0.85,1.26,1.66,2.54,2.42,3.84l-64.09,74.79
			C735.4,666.31,733.88,665.86,732.38,665.38z"/>
		<path class="st2" d="M715.54,658.39l71.95-83.97c1.02,1.05,2.01,2.11,2.97,3.19l-70.92,82.77
			C718.19,659.74,716.85,659.08,715.54,658.39z"/>
		<path class="st2" d="M700.89,648.86l73.58-85.88c1.16,0.87,2.31,1.76,3.42,2.67l-73.55,85.83
			C703.16,650.63,702.01,649.76,700.89,648.86z"/>
		<path class="st2" d="M688.53,636.63l71.23-83.13c1.3,0.71,2.58,1.45,3.83,2.2l-72.21,84.27
			C690.4,638.87,689.45,637.77,688.53,636.63z"/>
		<g>
			<path class="st4" d="M759.66,553.44c0.03,0.02,0.07,0.04,0.1,0.06c1.3,0.71,2.58,1.45,3.83,2.2c3.82,2.27,7.45,4.71,10.88,7.29
				c1.16,0.87,2.31,1.76,3.42,2.67c3.1,2.51,6.01,5.15,8.73,7.88c0.29,0.29,0.58,0.59,0.87,0.89c1.02,1.05,2.01,2.11,2.97,3.19
				c3,3.37,5.72,6.87,8.14,10.49c0.85,1.26,1.66,2.54,2.42,3.84c2.47,4.12,4.54,8.38,6.21,12.74c0.6,1.57,1.15,3.15,1.64,4.74
				c0.74,2.4,1.35,4.83,1.84,7.27c0.6,3.04,1.01,6.07,1.25,9.11c0.17,2.11,0.26,4.22,0.28,6.33c0.08,7.37-0.66,14.72-1.72,21.99
				c-0.2,1.36-0.41,2.73-0.63,4.09c-0.22,1.37-0.45,2.74-0.68,4.1c-0.32,1.88-0.65,3.75-0.98,5.62c-0.05,0.28-0.1,0.57-0.15,0.85
				c-1.06,6.01-2.14,12.12-2.92,18.23c-0.32,2.53-0.59,5.07-0.8,7.59c-0.28,3.54-0.41,7.06-0.33,10.55
				c0.06,3.02,0.29,6.04,0.67,9.04c0.24,1.88,0.53,3.76,0.89,5.62c0.98,5.12,2.41,10.15,4.25,15.02c0.57,1.52,1.19,3.02,1.84,4.51
				c1.88,4.26,4.08,8.37,6.59,12.29c0.81,1.26,1.65,2.5,2.52,3.73c2.55,3.58,5.37,6.97,8.44,10.14c0.2,0.21,0.4,0.41,0.6,0.61
				c0.06,0.06,0.13,0.13,0.19,0.19c0.76,0.76,1.53,1.5,2.31,2.23c3.17,2.97,6.57,5.69,10.14,8.15c1.2,0.83,2.42,1.62,3.66,2.39
				c3.78,2.35,7.74,4.42,11.82,6.18c1.39,0.61,2.81,1.18,4.24,1.71c4.47,1.67,9.07,2.99,13.74,3.94c1.65,0.34,3.31,0.62,4.97,0.87
				c3.17,0.46,6.36,0.74,9.57,0.85c2.28,0.07,4.55,0.06,6.84-0.03c2.01-0.08,4.02-0.21,6.04-0.39c6.54-0.58,13.09-1.65,19.59-2.88
				c2.3-0.43,4.58-0.88,6.85-1.34c1.02-0.2,2.04-0.41,3.05-0.62c1.89-0.38,3.78-0.76,5.66-1.14c3.89-0.77,7.82-1.51,11.8-2.2
				c1.68-0.29,3.36-0.57,5.06-0.84c0.53-0.09,1.06-0.17,1.59-0.25c2.69-0.42,5.4-0.81,8.12-1.15c3.63-0.46,7.29-0.85,10.97-1.15
				c2.01-0.16,4.02-0.29,6.04-0.39c5.69-0.29,11.42-0.33,17.16-0.04c1.8,0.08,3.6,0.21,5.4,0.36c3.33,0.29,6.65,0.69,9.99,1.23
				c1.77,0.29,3.52,0.61,5.25,0.97c1.61,0.33,3.2,0.7,4.77,1.09c4.65,1.17,9.13,2.61,13.43,4.31c1.42,0.56,2.82,1.14,4.2,1.76
				c4.14,1.84,8.07,3.92,11.79,6.23c1.25,0.77,2.46,1.57,3.65,2.39c3.63,2.5,7.02,5.22,10.13,8.16c0.64,0.59,1.27,1.2,1.88,1.82
				c0.4,0.41,0.81,0.82,1.2,1.24c3.48,3.65,6.55,7.58,9.18,11.76c1.36,2.18,0.71,5.05-1.47,6.42c-2.18,1.37-5.05,0.71-6.42-1.47
				c-2.13-3.39-4.6-6.6-7.38-9.6c-0.98-1.06-1.99-2.09-3.05-3.1c-3.09-2.94-6.49-5.66-10.16-8.13c-1.2-0.81-2.44-1.59-3.7-2.34
				c-3.76-2.25-7.77-4.25-12-5.98c-1.41-0.58-2.85-1.13-4.31-1.64c-4.41-1.58-9.03-2.86-13.83-3.85c-1.53-0.31-3.09-0.6-4.66-0.85
				c-0.09-0.02-0.18-0.03-0.28-0.04c-5.26-0.84-10.54-1.32-15.82-1.52c-1.87-0.07-3.74-0.1-5.62-0.1
				c-5.98-0.01-11.95,0.32-17.89,0.89c-2.11,0.2-4.2,0.43-6.3,0.69c-1.29,0.16-2.57,0.32-3.85,0.5c-3.25,0.45-6.48,0.95-9.68,1.49
				c-2.09,0.35-4.17,0.72-6.24,1.11c-2.29,0.42-4.57,0.86-6.83,1.31c-0.11,0.02-0.21,0.04-0.32,0.06c-1.87,0.37-3.75,0.74-5.63,1.12
				c-4.81,0.97-9.69,1.96-14.61,2.81c-2.2,0.39-4.4,0.75-6.62,1.07c-6.11,0.9-12.28,1.51-18.49,1.59c-1.6,0.02-3.21,0.01-4.82-0.04
				c-0.27-0.01-0.55-0.02-0.82-0.03c-5.21-0.22-10.39-0.86-15.49-1.91c-1.6-0.33-3.19-0.7-4.76-1.11
				c-4.54-1.16-8.99-2.65-13.32-4.44c-1.4-0.58-2.78-1.18-4.14-1.82c-4.01-1.87-7.9-4.01-11.63-6.4c-1.23-0.78-2.43-1.59-3.62-2.43
				c-3.55-2.49-6.93-5.22-10.12-8.18c-0.97-0.9-1.92-1.81-2.85-2.75c-0.07-0.07-0.14-0.13-0.2-0.21c-0.02-0.02-0.04-0.04-0.06-0.06
				c-3.09-3.13-5.95-6.46-8.58-9.97c-0.89-1.19-1.76-2.4-2.59-3.64c-2.59-3.79-4.9-7.77-6.94-11.88c-0.7-1.42-1.37-2.86-2.01-4.32
				c-2.01-4.6-3.67-9.34-4.97-14.18c-0.46-1.72-0.88-3.46-1.25-5.2c-1.22-5.77-1.93-11.65-2.08-17.55
				c-0.01-0.16-0.01-0.33-0.01-0.49c-0.04-2.07-0.02-4.15,0.05-6.22c0.29-7.73,1.34-15.42,2.59-22.99c0.38-2.29,0.77-4.56,1.17-6.82
				c0.09-0.51,0.18-1.02,0.27-1.52c0.04-0.21,0.08-0.43,0.11-0.64c0.44-2.51,0.88-4.99,1.3-7.45c0.92-5.45,1.73-10.82,2.23-16.13
				c0.23-2.41,0.39-4.81,0.47-7.2c0.19-6-0.14-11.95-1.32-17.87c-0.03-0.15-0.06-0.31-0.1-0.45c-0.35-1.73-0.78-3.45-1.29-5.15
				c-1.35-4.59-3.23-9.09-5.59-13.45c-0.72-1.34-1.49-2.66-2.31-3.97c-2.3-3.7-4.95-7.29-7.93-10.72c-0.95-1.09-1.93-2.17-2.94-3.23
				c-2.93-3.07-6.13-6.01-9.58-8.8c-1.12-0.9-2.26-1.78-3.43-2.65c-3.44-2.55-7.1-4.95-10.96-7.19c-0.75-0.43-1.5-0.86-2.26-1.28
				c-0.54-0.3-1-0.69-1.37-1.15c-1.16-1.42-1.41-3.47-0.47-5.18C754.57,553.02,757.4,552.2,759.66,553.44z"/>
		</g>
		<g>
			<path class="st4" d="M684.97,623.15c2.18-1.36,5.06-0.7,6.42,1.47c1.03,1.64,2.14,3.23,3.32,4.79c0.89,1.16,1.82,2.3,2.79,3.41
				c2.82,3.22,5.98,6.21,9.44,8.96c1.13,0.89,2.28,1.76,3.48,2.6c3.52,2.49,7.32,4.74,11.35,6.73c1.33,0.66,2.69,1.3,4.08,1.89
				c4.17,1.82,8.57,3.37,13.16,4.63c1.55,0.42,3.12,0.82,4.7,1.18c2.21,0.5,4.46,0.94,6.74,1.3c2.78,0.45,5.57,0.8,8.36,1.05
				c1.78,0.17,3.57,0.31,5.36,0.4c5.72,0.31,11.45,0.27,17.14-0.03c2.02-0.11,4.04-0.24,6.06-0.41c4.29-0.36,8.57-0.85,12.82-1.43
				c2.12-0.29,4.23-0.61,6.34-0.94c1.12-0.18,2.24-0.36,3.35-0.55c1.11-0.19,2.22-0.38,3.33-0.57c3.39-0.6,6.74-1.24,10.07-1.9
				c1.87-0.37,3.74-0.75,5.62-1.13c1.61-0.33,3.23-0.65,4.85-0.97c2.27-0.46,4.55-0.9,6.84-1.32c6.42-1.19,12.92-2.2,19.48-2.75
				c2-0.17,4.01-0.3,6.02-0.37c2.44-0.09,4.89-0.1,7.34-0.02c3.07,0.1,6.12,0.35,9.16,0.74c1.69,0.22,3.36,0.48,5.03,0.78
				c4.75,0.87,9.43,2.08,14.01,3.63c1.46,0.49,2.91,1.02,4.35,1.59c4.19,1.63,8.27,3.55,12.21,5.74c1.28,0.71,2.55,1.45,3.8,2.22
				c3.71,2.28,7.27,4.8,10.65,7.55c1.12,0.91,2.22,1.85,3.3,2.81c1.46,1.29,2.87,2.63,4.24,4.01c0.07,0.07,0.14,0.14,0.21,0.21
				c1.63,1.65,3.19,3.35,4.69,5.1c0.95,1.11,1.88,2.25,2.78,3.41c2.77,3.55,5.29,7.29,7.54,11.18c0.77,1.34,1.52,2.69,2.23,4.06
				c2.23,4.28,4.15,8.73,5.74,13.29c0.56,1.6,1.08,3.22,1.55,4.85c1.55,5.27,2.66,10.67,3.3,16.13c0.24,2.01,0.41,4.02,0.53,6.04
				c0.06,1.08,0.1,2.16,0.12,3.24c0.12,5.94-0.29,11.86-0.98,17.74c-0.32,2.66-0.69,5.31-1.1,7.95c-0.53,3.47-1.13,6.93-1.73,10.35
				c-0.13,0.72-0.26,1.44-0.38,2.16c-0.44,2.51-0.88,4.99-1.3,7.46c-0.28,1.65-0.55,3.29-0.8,4.93c-0.41,2.65-0.78,5.3-1.08,7.92
				c-0.81,6.97-1.15,13.83-0.56,20.64c0.16,1.94,0.4,3.87,0.73,5.8c0.1,0.64,0.22,1.27,0.35,1.91c0.87,4.4,2.23,8.73,4.03,12.96
				c0.62,1.45,1.29,2.89,2.01,4.31c2.01,3.98,4.42,7.85,7.21,11.57c0.87,1.17,1.79,2.33,2.74,3.47c2.72,3.28,5.74,6.44,9.04,9.44
				c1.06,0.97,2.15,1.92,3.27,2.85c3.26,2.73,6.77,5.32,10.49,7.75c1.21,0.79,2.46,1.56,3.72,2.32c1.28,0.76,2.58,1.51,3.91,2.24
				c2.25,1.24,3.08,4.07,1.84,6.32c-1.24,2.26-4.07,3.08-6.32,1.84c-1.9-1.04-3.75-2.12-5.56-3.24c-1.25-0.77-2.48-1.56-3.68-2.36
				c-3.68-2.45-7.17-5.06-10.44-7.8c-1.12-0.93-2.21-1.88-3.27-2.85c-3.29-2.98-6.33-6.1-9.11-9.34c-0.97-1.12-1.9-2.26-2.79-3.41
				c-2.83-3.61-5.34-7.35-7.52-11.2c-0.77-1.36-1.49-2.73-2.17-4.12c-2.23-4.48-4-9.1-5.3-13.8c-0.46-1.7-0.87-3.41-1.21-5.12
				c-0.01-0.04-0.01-0.07-0.02-0.1c-1.2-6.08-1.61-12.16-1.5-18.23c0.04-2.36,0.16-4.71,0.34-7.05c0.41-5.41,1.14-10.8,2-16.14
				c0.41-2.58,0.85-5.14,1.3-7.7c0.12-0.67,0.24-1.35,0.36-2.02c0.05-0.29,0.1-0.57,0.15-0.86c0.33-1.83,0.65-3.66,0.96-5.51
				c1.33-7.76,2.54-15.64,2.95-23.43c0.12-2.28,0.17-4.56,0.14-6.82c0-0.21,0-0.41-0.01-0.62c-0.12-5.72-0.81-11.41-2.04-16.98
				c-0.37-1.73-0.81-3.45-1.29-5.15c-1.34-4.78-3.08-9.44-5.19-13.93c-0.66-1.42-1.37-2.82-2.11-4.2c-2.13-4-4.56-7.85-7.28-11.48
				c-0.88-1.18-1.79-2.34-2.73-3.48c-1.64-1.98-3.37-3.89-5.18-5.72c-0.06-0.06-0.12-0.13-0.18-0.19c-1.2-1.21-2.43-2.37-3.7-3.5
				c-1.07-0.97-2.17-1.9-3.3-2.81c-3.39-2.75-6.98-5.24-10.73-7.46c-1.27-0.75-2.56-1.47-3.86-2.16c-4.02-2.12-8.19-3.93-12.47-5.43
				c-1.48-0.52-2.97-1-4.48-1.44c-4.76-1.39-9.64-2.39-14.57-2.98c-1.77-0.21-3.54-0.36-5.31-0.46c-0.68-0.04-1.37-0.07-2.05-0.09
				c-5.16-0.17-10.37,0.11-15.57,0.68c-2.14,0.23-4.28,0.51-6.41,0.83c-6.82,1.01-13.63,2.38-20.31,3.73
				c-0.02,0.01-0.05,0.01-0.07,0.02c-1.89,0.38-3.77,0.76-5.66,1.14c-0.38,0.08-0.77,0.16-1.16,0.23c-5.16,1.01-10.4,1.97-15.7,2.82
				c-1.47,0.24-2.93,0.46-4.41,0.67c-1.76,0.26-3.52,0.5-5.29,0.72c-0.39,0.05-0.77,0.1-1.16,0.15c-6.08,0.75-12.23,1.29-18.42,1.51
				c-1.94,0.08-3.87,0.12-5.81,0.13c-5.46,0.02-10.95-0.21-16.46-0.78c-1.72-0.17-3.44-0.39-5.17-0.63
				c-0.85-0.12-1.69-0.25-2.54-0.38c-4.12-0.66-8.14-1.53-12.04-2.59c-1.54-0.42-3.06-0.86-4.56-1.34c-4.46-1.42-8.75-3.09-12.83-5
				c-1.36-0.64-2.69-1.3-4-1.99c-3.96-2.07-7.7-4.38-11.2-6.91c-1.18-0.85-2.34-1.72-3.46-2.62c-3.45-2.74-6.62-5.72-9.5-8.89
				c-0.99-1.09-1.94-2.2-2.86-3.33c-1.82-2.26-3.5-4.62-5.03-7.06C682.13,627.4,682.79,624.52,684.97,623.15z"/>
		</g>
	</g>
	<g class="st1">
		<path class="st4" d="M1752.26,1194.69c-5.45,2.79-6.28,11.61-12.2,13.18c-4.23,1.12-8.19-2.28-11.25-5.4
			c-9.56-9.76-19.13-19.52-28.69-29.28c-2.5-2.55-5.14-5.42-5.36-8.98c-0.17-2.77,1.18-5.59,0.43-8.26
			c-0.52-1.83-1.96-3.26-3.47-4.42c-10.87-8.36-27.24-6.38-38.32,1.7c-11.08,8.08-17.7,20.94-22.06,33.95
			c-1.23,3.66-2.5,7.64-5.67,9.85c-7.52,5.25-16.58-3.36-24.73-7.58c-19.63-10.16-44.78,6.65-65.17-1.88
			c-17.78-7.43-25.28-31.58-43.99-36.18c-4.7-1.16-10.16-1.13-13.48-4.65c-1.89-2.01-2.65-4.79-3.36-7.45
			c-3.35-12.69-6.7-25.39-10.06-38.08c-0.72-2.73-1.44-5.66-0.49-8.33c0.94-2.63,3.3-4.44,5.47-6.21
			c17.3-14.13,28.56-35.42,30.51-57.67c0.25-2.89,0.31-5.98-1.15-8.48c-1.07-1.83-2.93-3.27-3.36-5.35
			c-0.49-2.38,1.05-4.67,2.62-6.52c7.95-9.36,19.83-18.77,17.38-30.8c-0.85-4.19-3.47-8.54-1.68-12.43
			c2.83-6.15,12.8-3.16,16.29,2.64c3.49,5.8,4.11,13.25,8.71,18.22c8.58,9.28,23.86,4.1,35.1-1.67
			c11.2-5.74,24.02-13.99,23.94-26.58c-0.02-3.93-1.35-8.1,0.39-11.62c3.55-7.17,16.93-6.11,18.37-13.98
			c0.46-2.51-0.64-5.01-1.74-7.31c-0.56-1.16-1.29-2.45-2.14-3.83c-38.52-19.69-82.15-30.8-128.39-30.8
			c-155.98,0-282.42,126.45-282.42,282.42c0,23.59,2.91,46.51,8.36,68.42c3.57-2.64,7.68-4.39,12.12-4.68
			c13.66-0.91,25.08,11.54,38.76,12.28c4.98,0.27,9.9-1.06,14.88-1.36c11.36-0.69,22.28,3.9,33.22,7.03
			c10.95,3.13,23.51,4.6,33.05-1.62c11.79-7.7,14.27-24.26,11.45-38.06c-0.67-3.3-1.43-7.2,0.88-9.66c1.54-1.64,3.96-2.03,6.19-2.32
			c13.35-1.77,28.36-3.11,38.9,5.27c6.38,5.07,10.23,13.16,17.45,16.94c8.8,4.6,19.41,1.35,29.33,0.86
			c22.09-1.1,44.02,13.89,51.01,34.87c-14.33,4.8-29.89,10.68-37.24,23.88c-7.29,13.08-4.24,29.15-2.81,44.06
			c1.43,14.9-0.33,32.54-12.95,40.59c-9.05,5.77-21.51,4.92-29.67,11.9c-9.62,8.22-10.03,24.68-21.03,30.94
			c-3.15,1.79-6.8,2.47-10.19,3.75c-7.1,2.69-12.72,7.85-18.33,13.09c36.18,16.84,76.5,26.26,119.03,26.26
			c147.76,0,268.99-113.47,281.36-258.03C1761.33,1195.08,1756.68,1192.44,1752.26,1194.69z M1357.28,1086.46
			c-1.99,3.74-5.06,6.78-8.09,9.75c-1.58,1.55-4.18,3.13-5.73,1.56c-0.61-0.61-0.78-1.52-1.22-2.26c-1-1.72-3.17-2.31-5.14-2.65
			c-6.97-1.24-14.13-1.44-21.16-0.58c-1.19,0.14-2.49,0.29-3.49-0.36c-1.55-1.02-1.46-3.28-1.19-5.12
			c1.8-12.29,1.62-13.75-1.38-24.55c-2.39-8.61-4.1-16.33,0.32-24.79c2.58-4.94,6.89-9.18,12.25-10.68
			c5.37-1.5,11.76,0.23,14.89,4.84c5.35,7.89-0.42,19.65,4.63,27.73c3.94,6.32,13.2,8.11,16.3,14.88
			C1360.04,1078.08,1359.27,1082.71,1357.28,1086.46z M1593.64,1248.59c-1.05,4.32-4.28,8.31-8.62,9.3
			c-6.31,1.45-12.51-3.5-18.97-3.1c-4.65,0.29-8.93,3.34-13.57,3.01c-0.81-0.06-1.69-0.26-2.17-0.91c-0.6-0.8-0.38-1.92-0.1-2.87
			c1.61-5.57,4.18-10.86,7.57-15.56c0.24-0.34,0.66-0.58,1.08-0.72c-0.41-0.47-0.71-1.08-0.98-1.66c-1.43-3.06-2.86-6.11-4.29-9.17
			l6.23,10.71c0.39,0.06,0.62,0.29,0.42,0.73l-0.42-0.73c-0.27-0.04-0.61,0-0.95,0.11c0.25,0.28,0.53,0.52,0.88,0.67
			c1.57,0.7,3.27-0.61,4.38-1.93c4.24-5.05,7.54-12.22,14.08-13.08c6.69-0.88,11.98,5.72,14.21,12.09
			C1593.88,1239.68,1594.69,1244.27,1593.64,1248.59z M1724.2,1282.17c-6.63,15.21-15.13,29.59-25.25,42.74
			c-1.2,1.56-2.51,3.17-4.33,3.94c-4.05,1.71-8.46-1.37-12.84-1.7c-10.45-0.79-20.31,13.74-28.97,7.83
			c-5.64-3.84-5.76-10.94-12.15-14.48c-3-1.66-7.41-0.02-10.36-1.72c-3.7-2.13-3.96-5.21-6.84-7.49
			c-9.42-7.47-21.84-9.8-16.28-24.72c9.85-26.43,69.9-17.39,56.09-55.24c-0.96-2.63-2.38-5.49-1.33-8.08
			c0.65-1.61,2.13-2.71,3.56-3.69c6.64-4.58,13.74-8.5,21.15-11.69c2.45-1.05,5.13-2.04,7.72-1.43c3.87,0.92,6,4.95,7.66,8.57
			c7.25,15.86,14.51,31.72,21.77,47.58c1.47,3.22,2.97,6.55,3,10.09C1726.78,1275.98,1725.52,1279.14,1724.2,1282.17z"/>
		<path class="st2" d="M1613.13,921.27c0.85,1.38,1.58,2.67,2.14,3.83c1.1,2.3,2.2,4.8,1.74,7.31c-1.44,7.87-14.82,6.81-18.37,13.98
			c-1.74,3.52-0.42,7.7-0.39,11.62c0.08,12.59-12.74,20.83-23.94,26.58c-11.24,5.76-26.52,10.94-35.1,1.67
			c-4.6-4.97-5.22-12.42-8.71-18.22c-3.49-5.8-13.46-8.79-16.29-2.64c-1.79,3.88,0.82,8.24,1.68,12.43
			c2.45,12.03-9.43,21.44-17.38,30.8c-1.57,1.85-3.11,4.14-2.62,6.52c0.43,2.08,2.28,3.52,3.36,5.35c1.47,2.5,1.41,5.59,1.15,8.48
			c-1.95,22.25-13.21,43.54-30.51,57.67c-2.17,1.77-4.53,3.58-5.47,6.21c-0.95,2.66-0.23,5.59,0.49,8.33
			c3.35,12.69,6.7,25.39,10.06,38.08c0.7,2.66,1.47,5.44,3.36,7.45c3.31,3.52,8.78,3.5,13.48,4.65
			c18.71,4.6,26.22,28.75,43.99,36.18c20.39,8.53,45.54-8.28,65.17,1.88c8.15,4.22,17.21,12.83,24.73,7.58
			c3.16-2.21,4.44-6.19,5.67-9.85c4.36-13,10.97-25.87,22.06-33.95c11.08-8.08,27.45-10.06,38.32-1.7c1.51,1.16,2.95,2.59,3.47,4.42
			c0.75,2.67-0.6,5.49-0.43,8.26c0.22,3.56,2.87,6.43,5.36,8.98c9.56,9.76,19.13,19.52,28.69,29.28c3.06,3.12,7.03,6.52,11.25,5.4
			c5.92-1.57,6.75-10.39,12.2-13.18c4.42-2.26,9.07,0.38,13.84,2.6c0.69-8.04,1.06-16.18,1.06-24.4
			C1767.17,1063.15,1704.57,968.02,1613.13,921.27z"/>
		<path class="st2" d="M1394.23,1412.22c11-6.26,11.41-22.72,21.03-30.94c8.16-6.98,20.62-6.12,29.67-11.9
			c12.62-8.05,14.38-25.69,12.95-40.59c-1.43-14.9-4.47-30.98,2.81-44.06c7.36-13.2,22.92-19.08,37.24-23.88
			c-6.99-20.98-28.92-35.97-51.01-34.87c-9.92,0.49-20.53,3.74-29.33-0.86c-7.22-3.78-11.07-11.87-17.45-16.94
			c-10.54-8.38-25.55-7.04-38.9-5.27c-2.23,0.3-4.65,0.68-6.19,2.32c-2.31,2.46-1.55,6.36-0.88,9.66
			c2.81,13.8,0.34,30.36-11.45,38.06c-9.53,6.22-22.1,4.75-33.05,1.62c-10.95-3.13-21.86-7.72-33.22-7.03
			c-4.98,0.3-9.9,1.63-14.88,1.36c-13.67-0.73-25.1-13.19-38.76-12.28c-4.44,0.29-8.55,2.05-12.12,4.68
			c5.12,20.59,12.5,40.29,21.87,58.82c4.99,0.33,9.98,0.67,14.96,1c-4.99-0.33-9.98-0.66-14.96-1
			c28.58,56.53,75.6,102.14,133.16,128.93c5.61-5.24,11.22-10.4,18.33-13.09C1387.43,1414.69,1391.07,1414.01,1394.23,1412.22z"/>
		<path class="st2" d="M1702,1215.01c-1.65-3.61-3.79-7.65-7.66-8.57c-2.59-0.62-5.27,0.37-7.72,1.43
			c-7.41,3.19-14.51,7.11-21.15,11.69c-1.43,0.98-2.9,2.08-3.56,3.69c-1.05,2.6,0.37,5.45,1.33,8.08
			c13.82,37.85-46.23,28.81-56.09,55.24c-5.56,14.92,6.86,17.24,16.28,24.72c2.88,2.29,3.15,5.37,6.84,7.49
			c2.95,1.7,7.36,0.06,10.36,1.72c6.39,3.54,6.51,10.64,12.15,14.48c8.67,5.9,18.52-8.62,28.97-7.83c4.38,0.33,8.79,3.41,12.84,1.7
			c1.82-0.77,3.13-2.38,4.33-3.94c10.12-13.14,18.62-27.53,25.25-42.74c1.32-3.03,2.59-6.19,2.56-9.49c-0.03-3.54-1.52-6.87-3-10.09
			C1716.51,1246.73,1709.25,1230.87,1702,1215.01z"/>
		<path class="st2" d="M1578.19,1223.4c-6.54,0.86-9.84,8.03-14.08,13.08c-1.1,1.31-2.81,2.63-4.38,1.93
			c-0.35-0.16-0.63-0.39-0.88-0.67c-0.42,0.14-0.84,0.39-1.08,0.72c-3.39,4.7-5.97,9.99-7.57,15.56c-0.28,0.96-0.5,2.08,0.1,2.87
			c0.49,0.65,1.36,0.85,2.17,0.91c4.65,0.33,8.92-2.72,13.57-3.01c6.46-0.4,12.66,4.55,18.97,3.1c4.34-0.99,7.56-4.98,8.62-9.3
			c1.05-4.32,0.24-8.91-1.23-13.11C1590.18,1229.12,1584.88,1222.52,1578.19,1223.4z"/>
		<path class="st5" d="M1559.81,1237.62l0.42,0.73C1560.43,1237.91,1560.2,1237.68,1559.81,1237.62z"/>
		<path class="st2" d="M1559.81,1237.62l-6.23-10.71c1.43,3.06,2.86,6.11,4.29,9.17c0.27,0.58,0.57,1.18,0.98,1.66
			C1559.2,1237.62,1559.54,1237.58,1559.81,1237.62z"/>
		<path class="st2" d="M1341.97,1059.35c-5.04-8.09,0.72-19.84-4.63-27.73c-3.13-4.61-9.52-6.34-14.89-4.84
			c-5.37,1.5-9.67,5.74-12.25,10.68c-4.42,8.45-2.71,16.18-0.32,24.79c3,10.8,3.18,12.25,1.38,24.55c-0.27,1.84-0.36,4.1,1.19,5.12
			c1,0.66,2.3,0.51,3.49,0.36c7.03-0.86,14.19-0.66,21.16,0.58c1.96,0.35,4.13,0.93,5.14,2.65c0.43,0.74,0.61,1.65,1.22,2.26
			c1.56,1.57,4.16-0.01,5.73-1.56c3.02-2.97,6.1-6,8.09-9.75c1.99-3.74,2.76-8.38,1-12.23
			C1355.17,1067.46,1345.91,1065.67,1341.97,1059.35z"/>
	</g>
	<g class="st6">
		<rect x="893.09" y="1223.95" class="st7" width="184.39" height="140.61"/>
		<path class="st8" d="M1276.69,1297.96H693.88c-46.99,0-85.08-38.09-85.08-85.08v-338.6c0-46.99,38.09-85.08,85.08-85.08h582.81
			c46.99,0,85.08,38.09,85.08,85.08v338.6C1361.78,1259.87,1323.68,1297.96,1276.69,1297.96z"/>
		<path class="st8" d="M1223.29,1452.08h-476c-11.8,0-15.22-16.13-4.43-20.91l150.23-66.61h184.39l150.23,66.61
			C1238.51,1435.96,1235.09,1452.08,1223.29,1452.08z"/>
		<path class="st9" d="M1273.22,1250.08H697.35c-21.48,0-38.9-17.42-38.9-38.9v-335.2c0-21.48,17.42-38.9,38.9-38.9h575.86
			c21.48,0,38.9,17.42,38.9,38.9v335.2C1312.12,1232.66,1294.7,1250.08,1273.22,1250.08z"/>
		<path class="st10" d="M1087.25,1043.58c0-0.47-0.01-0.93-0.02-1.39l23.16-10.9c-0.78-7.76-2.27-15.31-4.43-22.57l-25.54-1.3
			c-1.98-5.02-4.36-9.84-7.1-14.43l14.59-21c-4.5-6.24-9.58-12.04-15.15-17.32l-22.77,11.65c-4.18-3.33-8.64-6.33-13.33-8.96
			l2.14-25.5c-6.93-3.13-14.21-5.63-21.76-7.43l-13.9,21.48c-4.78-0.71-9.66-1.08-14.63-1.08c-0.47,0-0.93,0.01-1.39,0.02
			l-10.9-23.16c-7.76,0.78-15.31,2.27-22.57,4.43l-1.3,25.54c-5.02,1.98-9.84,4.36-14.43,7.1l-21-14.59
			c-6.25,4.5-12.04,9.57-17.32,15.14l11.65,22.77c-3.33,4.18-6.33,8.64-8.96,13.33l-25.5-2.14c-3.13,6.93-5.63,14.21-7.43,21.76
			l21.48,13.91c-0.71,4.77-1.08,9.66-1.08,14.63c0,0.46,0.01,0.93,0.02,1.39l-23.16,10.9c0.78,7.76,2.27,15.3,4.42,22.57l25.56,1.3
			c1.97,5.02,4.36,9.85,7.1,14.43l-14.6,21.01c4.5,6.24,9.58,12.04,15.15,17.32l22.77-11.65c4.18,3.33,8.64,6.33,13.33,8.96
			l-2.14,25.5c6.94,3.13,14.22,5.64,21.77,7.43l13.9-21.48c4.77,0.71,9.66,1.08,14.63,1.08c0.46,0,0.93-0.01,1.39-0.02l10.9,23.16
			c7.76-0.78,15.31-2.27,22.57-4.42l1.3-25.55c5.02-1.98,9.84-4.36,14.43-7.1l21,14.6c6.24-4.5,12.04-9.58,17.32-15.15l-11.65-22.77
			c3.33-4.18,6.33-8.64,8.96-13.34l25.5,2.15c3.13-6.93,5.63-14.21,7.43-21.76l-21.48-13.91
			C1086.87,1053.44,1087.25,1048.55,1087.25,1043.58z M988.51,1104.21c-33.49,0-60.63-27.14-60.63-60.63
			c0-33.48,27.14-60.63,60.63-60.63c33.48,0,60.63,27.14,60.63,60.63C1049.14,1077.06,1021.99,1104.21,988.51,1104.21z"/>
	</g>
	<g class="st6">
		<circle class="st4" cx="1551.91" cy="1178.15" r="49.65"/>
		
			<rect x="999.71" y="1287.13" transform="matrix(0.8447 -0.5352 0.5352 0.8447 -513.3439 904.2601)" class="st11" width="603.72" height="99.21"/>
		
			<rect x="1017.2" y="1347.43" transform="matrix(0.8447 -0.5352 0.5352 0.8447 -525.4054 917.9128)" class="st12" width="603.72" height="33.84"/>
		
			<rect x="999.09" y="1318.84" transform="matrix(0.8447 -0.5352 0.5352 0.8447 -512.9196 903.7798)" class="st13" width="603.72" height="33.84"/>
		<path class="st14" d="M1020.04,1456.4l-31.53,60.21c4.83,2.3,9.09,5.93,12.17,10.78c3.07,4.85,4.54,10.26,4.56,15.61l67.91-2.8
			L1020.04,1456.4z"/>
		<path class="st4" d="M988.5,1516.61l-14.49,27.68l31.22-1.29c-0.01-5.35-1.48-10.76-4.56-15.61
			C997.6,1522.55,993.33,1518.91,988.5,1516.61z"/>
	</g>
	<g class="st1">
		<g>
			<path class="st3" d="M342.14,1372.82v94.07h396.65v12.86H340.73c-33.08,0-59.9-26.82-59.9-59.9c0-16.54,6.7-31.52,17.54-42.35
				s25.81-17.54,42.35-17.54h398.06v12.87H342.14z"/>
			<path class="st9" d="M722.38,1466.89H344.28c-25.98,0-47.04-21.06-47.04-47.04v0c0-25.98,21.06-47.04,47.04-47.04h378.09V1466.89
				z"/>
		</g>
		<g>
			<path class="st13" d="M757.54,1433.35l-410.41-169.82c-3.52-1.46-5.19-5.49-3.74-9.01l40.53-97.94c1.46-3.52,5.49-5.19,9.01-3.74
				l410.41,169.82c3.52,1.46,5.19,5.49,3.74,9.01l-40.53,97.94C765.1,1433.14,761.06,1434.81,757.54,1433.35z"/>
			
				<rect x="408.83" y="1168.23" transform="matrix(0.924 0.3823 -0.3823 0.924 501.3409 -66.5973)" class="st3" width="18.81" height="119.8"/>
			
				<rect x="439.2" y="1180.8" transform="matrix(0.924 0.3823 -0.3823 0.924 508.4525 -77.2535)" class="st3" width="18.81" height="119.8"/>
			
				<rect x="570.18" y="1254.23" transform="matrix(0.924 0.3823 -0.3823 0.924 538.1079 -121.6895)" class="st3" width="10.11" height="77.74"/>
			
				<rect x="644.8" y="1282.19" transform="matrix(0.924 0.3823 -0.3823 0.924 565.8349 -163.2361)" class="st3" width="97.67" height="119.8"/>
		</g>
	</g>
	<g class="st1">
		<path class="st4" d="M1226.95,827.53l-115.56-116.42l-32.29,86.47c-5.25,14.06,52.98,48.79,130.07,77.58
			c77.08,28.79,143.83,40.72,149.08,26.67l32.29-86.47L1226.95,827.53z"/>
		<path class="st4" d="M1510.67,845.9l15.17-40.61l-15.69,1.17l-12.86,34.45c2.39-0.24,4.87,0.04,7.28,0.94
			S1509.02,844.15,1510.67,845.9z"/>
		<polygon class="st15" points="1327.37,558.62 985.29,584.08 1111.38,711.11 1226.95,827.53 1390.53,815.35 1510.15,806.45 
			1525.84,805.28 1569.03,802.07 		"/>
		<path class="st13" d="M1510.67,845.9c-1.65-1.75-3.7-3.16-6.11-4.06s-4.88-1.17-7.28-0.94c-5.99,0.59-11.42,4.47-13.67,10.49
			l-21.96,58.8l30.5,11.39l21.96-58.8C1516.36,856.76,1514.81,850.27,1510.67,845.9z"/>
	</g>
	<g class="st1">
		<g>
			<path class="st4" d="M519.3,1093.86c-2.97,2.53-7.07,3.65-11.16,2.68c-6.82-1.62-11.04-8.46-9.42-15.28l20.88-88.06l-84.46-59.89
				c-5.72-4.06-7.07-11.98-3.01-17.7c4.05-5.72,11.98-7.07,17.7-3.01l91.44,64.84c4.22,2.99,6.2,8.25,5.01,13.29l-22.86,96.4
				C522.78,1089.85,521.29,1092.17,519.3,1093.86z"/>
		</g>
		<g>
			<path class="st4" d="M634.04,919.4l-91.88,78.07c-5.34,4.54-13.36,3.89-17.9-1.45c-4.54-5.34-3.89-13.36,1.45-17.9l91.88-78.07
				c5.34-4.54,13.36-3.89,17.9,1.45C640.03,906.85,639.38,914.86,634.04,919.4z"/>
		</g>
		<circle class="st4" cx="442.49" cy="922.96" r="40.73"/>
		<circle class="st4" cx="511.07" cy="1084.19" r="40.73"/>
		<circle class="st4" cx="625.82" cy="909.72" r="40.73"/>
		<circle class="st3" cx="535.17" cy="986.74" r="40.73"/>
	</g>
</g>
</svg>
